<svg xmlns="http://www.w3.org/2000/svg" xmlns:xlink="http://www.w3.org/1999/xlink" viewBox="0 0 526.62 280.56"><defs><style>.cls-1{isolation:isolate;}.cls-2{fill:#a8b638;}.cls-3{fill:#4d4d4d;}.cls-4,.cls-9{mix-blend-mode:multiply;}.cls-5{fill:url(#radial-gradient);}.cls-6{fill:#fff;}.cls-7{fill:url(#radial-gradient-2);}.cls-8{fill:url(#radial-gradient-3);}.cls-9{fill:url(#radial-gradient-4);}.cls-10{fill:url(#radial-gradient-5);}.cls-11{mix-blend-mode:overlay;}.cls-12{fill:url(#radial-gradient-6);}.cls-13{fill:url(#radial-gradient-7);}.cls-14{fill:url(#radial-gradient-8);}.cls-15{fill:url(#radial-gradient-9);}.cls-16{fill:url(#radial-gradient-10);}.cls-17{fill:url(#radial-gradient-11);}.cls-18{fill:url(#radial-gradient-12);}</style><radialGradient id="radial-gradient" cx="122.22" cy="144.75" r="34.17" gradientUnits="userSpaceOnUse"><stop offset="0.69" stop-opacity="0.75"/><stop offset="1" stop-opacity="0"/></radialGradient><radialGradient id="radial-gradient-2" cx="134.17" cy="132.52" r="36.8" gradientUnits="userSpaceOnUse"><stop offset="0" stop-color="#e1e43c"/><stop offset="1" stop-color="#6e9a43"/></radialGradient><radialGradient id="radial-gradient-3" cx="133.43" cy="134.56" r="30.09" gradientUnits="userSpaceOnUse"><stop offset="0" stop-color="#cbdb2a"/><stop offset="1" stop-color="#618138"/></radialGradient><radialGradient id="radial-gradient-4" cx="159.04" cy="106.76" r="43.33" gradientUnits="userSpaceOnUse"><stop offset="0.72" stop-opacity="0.75"/><stop offset="1" stop-opacity="0"/></radialGradient><radialGradient id="radial-gradient-5" cx="174.73" cy="91.81" r="51.66" gradientUnits="userSpaceOnUse"><stop offset="0" stop-color="#f287b7"/><stop offset="1" stop-color="#92278f"/></radialGradient><radialGradient id="radial-gradient-6" cx="173.83" cy="89.85" r="44.46" gradientUnits="userSpaceOnUse"><stop offset="0" stop-color="#cf128c"/><stop offset="1" stop-color="#6f2c91"/></radialGradient><radialGradient id="radial-gradient-7" cx="154.28" cy="182.97" r="38.92" gradientUnits="userSpaceOnUse"><stop offset="0.71" stop-opacity="0.75"/><stop offset="1" stop-opacity="0"/></radialGradient><radialGradient id="radial-gradient-8" cx="167.6" cy="170.31" r="42.88" gradientUnits="userSpaceOnUse"><stop offset="0" stop-color="#00bbd6"/><stop offset="1" stop-color="#0071a8"/></radialGradient><radialGradient id="radial-gradient-9" cx="166.95" cy="170.06" r="34.87" gradientUnits="userSpaceOnUse"><stop offset="0" stop-color="#00adcc"/><stop offset="1" stop-color="#005b94"/></radialGradient><radialGradient id="radial-gradient-10" cx="197.2" cy="144.75" r="49.41" gradientUnits="userSpaceOnUse"><stop offset="0.75" stop-opacity="0.75"/><stop offset="1" stop-opacity="0"/></radialGradient><radialGradient id="radial-gradient-11" cx="215.58" cy="127.22" r="59.67" gradientUnits="userSpaceOnUse"><stop offset="0" stop-color="#dcddde"/><stop offset="1" stop-color="#808285"/></radialGradient><radialGradient id="radial-gradient-12" cx="215.34" cy="128.69" r="50.31" gradientUnits="userSpaceOnUse"><stop offset="0" stop-color="#c7c8ca"/><stop offset="1" stop-color="#58595b"/></radialGradient></defs><g class="cls-1"><g id="Layer_1" data-name="Layer 1"><path class="cls-2" d="M260,208.75h.85v-15H260Zm7.17-9.74a3.66,3.66,0,0,0-2.67,1.14v-.59h-.85v9.19h.85v-7.14a3.1,3.1,0,0,1,.67-.94,2.87,2.87,0,0,1,4,0,2.71,2.71,0,0,1,.85,2v6.07h.83V202.6a3.55,3.55,0,0,0-1-2.57A3.6,3.6,0,0,0,267.19,199Zm9.72,0a3.66,3.66,0,0,0-2.67,1.14v-.59h-.85v9.19h.85v-7.14a3.1,3.1,0,0,1,.67-.94,2.87,2.87,0,0,1,4,0,2.71,2.71,0,0,1,.85,2v6.07h.83V202.6a3.55,3.55,0,0,0-1-2.57A3.6,3.6,0,0,0,276.91,199Zm10.92-.28a5.14,5.14,0,1,0,3.64,1.51A4.95,4.95,0,0,0,287.83,198.73Zm3,8.15a4.24,4.24,0,1,1,1.25-3A4.12,4.12,0,0,1,290.83,206.88Zm7.22.55-3.31-7.87h-1l3.75,9.19h1.08l3.79-9.19h-1Zm14.45-6.57a7.87,7.87,0,0,0-.53-.62,5,5,0,0,0-3.65-1.51A5.14,5.14,0,1,0,312,207.5c.19-.2.36-.41.53-.62v1.87h.84v-9.19h-.84Zm0,3.85a4.19,4.19,0,0,1-1.17,2.16A4.22,4.22,0,1,1,312.5,203Zm5.19-9.06h-.83v3.91H315v.85h1.88v8.34h.83v-8.34h1.88v-.85h-1.88Zm4.1.66a.83.83,0,0,0-.6.24.79.79,0,0,0-.25.59.79.79,0,0,0,.25.6.83.83,0,0,0,.6.24.84.84,0,0,0,.59-.24.81.81,0,0,0,.24-.6.82.82,0,0,0-.24-.59A.84.84,0,0,0,321.79,196.31Zm-.43,12.44h.84v-9.19h-.84Zm6.75-1.32-3.3-7.87h-1l3.75,9.19h1.08l3.79-9.19h-1Zm15.12-4a4.31,4.31,0,0,0-1.33-3.16,5.14,5.14,0,1,0,0,7.26,4.08,4.08,0,0,0,.67-.76l-.9-.32c-.13.16-.26.3-.4.45a4.24,4.24,0,0,1-7.25-3,3.64,3.64,0,0,1,0-.48Zm-8-2.53a4.25,4.25,0,0,1,6,0,4,4,0,0,1,1,1.68h-8.06A4.26,4.26,0,0,1,335.25,200.87Zm19.92-7.09h-3.92v15h.84v-5.19h2.54a4.89,4.89,0,0,0,3.46-8.35A4.91,4.91,0,0,0,355.17,193.78Zm2.31,7.74a3.88,3.88,0,0,1-2.85,1.18h-2.54v-8.06h2.54a4,4,0,0,1,2.85,6.88Zm8.25-2.79a5.14,5.14,0,1,0,3.64,1.51A5,5,0,0,0,365.73,198.73Zm3,8.15a4.24,4.24,0,1,1,1.25-3A4.12,4.12,0,0,1,368.73,206.88Zm6.54-3.93a6.73,6.73,0,0,1-1-.72,1.36,1.36,0,0,1,0-1.93,1.31,1.31,0,0,1,1-.4,1.22,1.22,0,0,1,.92.36,1.82,1.82,0,0,1,.44,1.07l.73-.3v0a1.84,1.84,0,0,0-.58-1.34,2,2,0,0,0-1.51-.6,2.13,2.13,0,0,0-1.56.65,2.15,2.15,0,0,0-.64,1.56,2.12,2.12,0,0,0,.64,1.56,6.92,6.92,0,0,0,1.48,1,7.45,7.45,0,0,1,1.21.88,1.74,1.74,0,0,1,.56,1.32,1.89,1.89,0,0,1-3.22,1.35,1.87,1.87,0,0,1-.56-1.37l-.83.21a2.44,2.44,0,0,0,.79,1.75A2.73,2.73,0,0,0,377,204.1,7.28,7.28,0,0,0,375.27,203Zm7.13,0a6.73,6.73,0,0,1-1-.72,1.37,1.37,0,0,1,1-2.33,1.24,1.24,0,0,1,.92.36,1.82,1.82,0,0,1,.44,1.07l.73-.3v0a1.84,1.84,0,0,0-.58-1.34,2.06,2.06,0,0,0-1.51-.6,2.13,2.13,0,0,0-1.56.65,2.16,2.16,0,0,0-.65,1.56,2.13,2.13,0,0,0,.65,1.56,6.92,6.92,0,0,0,1.48,1,7.45,7.45,0,0,1,1.21.88,1.78,1.78,0,0,1,.56,1.32,1.89,1.89,0,0,1-1.9,1.9,1.8,1.8,0,0,1-1.32-.55,1.87,1.87,0,0,1-.56-1.37l-.84.21a2.45,2.45,0,0,0,.8,1.75,2.72,2.72,0,0,0,3.85,0,2.73,2.73,0,0,0,0-3.86A7.75,7.75,0,0,0,382.4,203Zm4.63,5.8h.84v-9.19H387Zm.42-12.44a.81.81,0,0,0-.59.24.79.79,0,0,0-.25.59.79.79,0,0,0,.25.6.85.85,0,0,0,1.18,0,.79.79,0,0,0,.25-.6.79.79,0,0,0-.25-.59A.81.81,0,0,0,387.45,196.31Zm8.06,2.42a5,5,0,0,0-3.64,1.51,7.46,7.46,0,0,0-.53.61v-7.07h-.84v15h.84v-1.86a7.46,7.46,0,0,0,.53.61,5.14,5.14,0,1,0,3.64-8.77Zm3,8.15a4.25,4.25,0,0,1-6,0,4.07,4.07,0,0,1-1.16-2.11V203a4.16,4.16,0,0,1,1.16-2.13,4.25,4.25,0,0,1,6,6Zm4.74-10.57a.85.85,0,0,0-.6.24.83.83,0,0,0-.25.59.82.82,0,0,0,.25.6.85.85,0,0,0,.6.24.82.82,0,0,0,.59-.24.79.79,0,0,0,.25-.6.79.79,0,0,0-.25-.59A.82.82,0,0,0,403.25,196.31Zm-.42,12.44h.83v-9.19h-.83Zm3.55,0h.84v-15h-.84Zm4-12.44a.85.85,0,0,0-.6.24.83.83,0,0,0-.25.59.82.82,0,0,0,.25.6.85.85,0,0,0,.6.24.84.84,0,0,0,.84-.84.83.83,0,0,0-.25-.59A.82.82,0,0,0,410.35,196.31Zm-.42,12.44h.83v-9.19h-.83Zm5.34-13.1h-.84v3.91h-1.87v.85h1.87v8.34h.84v-8.34h1.87v-.85h-1.87Zm4.09.66a.85.85,0,0,0-.6.24.83.83,0,0,0-.25.59.82.82,0,0,0,.25.6.85.85,0,0,0,.6.24.84.84,0,0,0,.84-.84.83.83,0,0,0-.25-.59A.82.82,0,0,0,419.36,196.31Zm-.42,12.44h.83v-9.19h-.83Zm13-5.35a4.34,4.34,0,0,0-1.32-3.16,5.13,5.13,0,0,0-7.27,0,5.14,5.14,0,1,0,7.27,7.26,4.5,4.5,0,0,0,.67-.76l-.9-.32c-.13.16-.27.3-.41.45a4.24,4.24,0,0,1-7.25-3,3.64,3.64,0,0,1,0-.48Zm-8-2.53a4.24,4.24,0,0,1,6,0,4,4,0,0,1,1,1.68h-8.07A4.28,4.28,0,0,1,424,200.87Zm13.76,3.23A7.62,7.62,0,0,0,436,203a6,6,0,0,1-1-.72,1.34,1.34,0,0,1,0-1.93,1.29,1.29,0,0,1,1-.4,1.22,1.22,0,0,1,.92.36,1.89,1.89,0,0,1,.45,1.07l.73-.3v0a1.85,1.85,0,0,0-.59-1.34,2,2,0,0,0-1.51-.6,2.13,2.13,0,0,0-1.56.65,2.15,2.15,0,0,0-.64,1.56,2.12,2.12,0,0,0,.64,1.56,6.79,6.79,0,0,0,1.49,1,7.24,7.24,0,0,1,1.2.88,1.74,1.74,0,0,1,.56,1.32,1.89,1.89,0,0,1-3.22,1.35,1.87,1.87,0,0,1-.56-1.37l-.83.21a2.44,2.44,0,0,0,.79,1.75,2.73,2.73,0,0,0,3.86-3.86Z"/><path class="cls-3" d="M370.78,182.66h4.53V144.83h30.56V140.3H375.31V107h30.56v-4.54H370.78Zm-90.73-80.18H259v80.18h4.54V154.87h13.61a26.19,26.19,0,0,0,26.14-26.25,25.3,25.3,0,0,0-7.66-18.49A26.49,26.49,0,0,0,280.05,102.48ZM292.41,144a20.86,20.86,0,0,1-15.25,6.32H263.55V107.07h13.61A21.6,21.6,0,0,1,292.41,144Zm43.52-41.48h-21v80.18h4.54V154.87H333a26.19,26.19,0,0,0,26.14-26.25,25.3,25.3,0,0,0-7.66-18.49A26.46,26.46,0,0,0,335.93,102.48ZM348.29,144A20.86,20.86,0,0,1,333,150.28H319.43V107.07H333A21.6,21.6,0,0,1,348.29,144Zm73.93-41.48-2.66,4.09-2.66-4.09h-4.52V103h1.82v6h.56v-6h1.58v6h.56v-5.54l2.66,4.09,2.66-4.09V109h.56v-6.41l.09-.14Z"/><g class="cls-4"><circle class="cls-5" cx="122.22" cy="144.75" r="34.17"/></g><circle class="cls-6" cx="124.1" cy="142.71" r="28.6"/><circle class="cls-7" cx="124.1" cy="142.71" r="23.71"/><path class="cls-8" d="M122.18,147l.94-1.86a.51.51,0,0,0,0-.48l-.94-1.86a.28.28,0,0,0-.5,0l-.94,1.86a.57.57,0,0,0,0,.48l.94,1.86A.28.28,0,0,0,122.18,147Zm6-8.7-.94,1.86a.51.51,0,0,0,0,.48l.94,1.86a.28.28,0,0,0,.49,0l.94-1.86a.51.51,0,0,0,0-.48l-.94-1.86A.28.28,0,0,0,128.2,138.34Zm-1.68,8.7.94-1.86a.51.51,0,0,0,0-.48l-.94-1.86a.28.28,0,0,0-.49,0l-.94,1.86a.51.51,0,0,0,0,.48L126,147A.28.28,0,0,0,126.52,147Zm4.34,0,.94-1.86a.51.51,0,0,0,0-.48l-.94-1.86a.28.28,0,0,0-.49,0l-.94,1.86a.51.51,0,0,0,0,.48l.94,1.86A.28.28,0,0,0,130.86,147Zm6.51-4.5.95-1.86a.57.57,0,0,0,0-.48l-.95-1.86a.28.28,0,0,0-.49,0l-.94,1.86a.51.51,0,0,0,0,.48l.94,1.86A.28.28,0,0,0,137.37,142.54Zm-13.51-4.2-1,1.86a.57.57,0,0,0,0,.48l1,1.86a.28.28,0,0,0,.49,0l.94-1.86a.51.51,0,0,0,0-.48l-.94-1.86A.28.28,0,0,0,123.86,138.34Zm15.69-4.5a.28.28,0,0,0-.5,0l-.94,1.86a.51.51,0,0,0,0,.48l.94,1.86a.28.28,0,0,0,.5,0l.94-1.86a.57.57,0,0,0,0-.48Zm4-4.67-.38-.54.2.41A.26.26,0,0,0,143.57,129.17ZM113,147a.28.28,0,0,0,.49,0l1-1.86a.57.57,0,0,0,0-.48l-1-1.86a.28.28,0,0,0-.49,0l-.94,1.86a.51.51,0,0,0,0,.48Zm2.66,4.5,1-1.86a.6.6,0,0,0,0-.49l-1-1.85a.28.28,0,0,0-.49,0l-.94,1.85a.53.53,0,0,0,0,.49l.94,1.86A.28.28,0,0,0,115.66,151.54Zm3.85-13.2-.94,1.86a.51.51,0,0,0,0,.48l.94,1.86a.28.28,0,0,0,.5,0l.94-1.86a.51.51,0,0,0,0-.48l-.94-1.86A.28.28,0,0,0,119.51,138.34Zm-2.17,8.7a.28.28,0,0,0,.5,0l.94-1.86a.51.51,0,0,0,0-.48l-.94-1.86a.28.28,0,0,0-.5,0l-.94,1.86a.51.51,0,0,0,0,.48Zm15.69,4.5.94-1.86a.53.53,0,0,0,0-.49l-.94-1.85a.28.28,0,0,0-.49,0l-.94,1.85a.53.53,0,0,0,0,.49l.94,1.86A.28.28,0,0,0,133,151.54Zm14.71-8.7-1,1.86a.57.57,0,0,0,0,.48l.7,1.37a24.71,24.71,0,0,0,.32-3.78A.16.16,0,0,0,147.74,142.84Zm-2.17-9.3a.26.26,0,0,0,.43.06,22.39,22.39,0,0,0-1.28-2.6l-.1.2a.57.57,0,0,0,0,.48Zm0,4.8-.95,1.86a.57.57,0,0,0,0,.48l.95,1.86a.28.28,0,0,0,.49,0l.94-1.86a.51.51,0,0,0,0-.48l-.94-1.86A.28.28,0,0,0,145.57,138.34Zm-1.68,8.7.94-1.86a.51.51,0,0,0,0-.48l-.94-1.86a.28.28,0,0,0-.5,0l-.94,1.86a.57.57,0,0,0,0,.48l.94,1.86A.28.28,0,0,0,143.89,147Zm3.14-10.4c-.08-.29-.16-.59-.25-.88a.55.55,0,0,0,0,.42Zm-12.32-2.8-.94,1.86a.51.51,0,0,0,0,.48l.94,1.86a.28.28,0,0,0,.49,0l.94-1.86a.51.51,0,0,0,0-.48l-.94-1.86A.28.28,0,0,0,134.71,133.84Zm8.68,0-.94,1.86a.57.57,0,0,0,0,.48l.94,1.86a.28.28,0,0,0,.5,0l.94-1.86a.51.51,0,0,0,0-.48l-.94-1.86A.28.28,0,0,0,143.39,133.84Zm-3.11,6.84.94,1.86a.28.28,0,0,0,.5,0l.94-1.86a.51.51,0,0,0,0-.48l-.94-1.86a.28.28,0,0,0-.5,0l-.94,1.86A.51.51,0,0,0,140.28,140.68ZM134.71,147a.28.28,0,0,0,.49,0l.94-1.86a.51.51,0,0,0,0-.48l-.94-1.86a.28.28,0,0,0-.49,0l-.94,1.86a.51.51,0,0,0,0,.48Zm-1.68-4.5.94-1.86a.51.51,0,0,0,0-.48l-.94-1.86a.28.28,0,0,0-.49,0l-.94,1.86a.51.51,0,0,0,0,.48l.94,1.86A.28.28,0,0,0,133,142.54Zm-26.54,9a.28.28,0,0,0,.49,0l.94-1.86a.53.53,0,0,0,0-.49l-.94-1.85a.28.28,0,0,0-.49,0l-.94,1.85a.53.53,0,0,0,0,.49Zm30.88,0,.95-1.86a.6.6,0,0,0,0-.49l-.95-1.85a.28.28,0,0,0-.49,0l-.94,1.85a.53.53,0,0,0,0,.49l.94,1.86A.28.28,0,0,0,137.37,151.54Zm2.18-4.5.94-1.86a.57.57,0,0,0,0-.48l-.94-1.86a.28.28,0,0,0-.5,0l-.94,1.86a.51.51,0,0,0,0,.48l.94,1.86A.28.28,0,0,0,139.55,147Zm-30.4,0,.94-1.86a.51.51,0,0,0,0-.48l-.94-1.86a.28.28,0,0,0-.49,0l-.94,1.86a.51.51,0,0,0,0,.48l.94,1.86A.28.28,0,0,0,109.15,147Zm19-22.5a.28.28,0,0,0,.49,0l.94-1.85a.53.53,0,0,0,0-.49l-.94-1.86a.28.28,0,0,0-.49,0l-.94,1.86a.53.53,0,0,0,0,.49Zm-4.34,0a.28.28,0,0,0,.49,0l.94-1.85a.53.53,0,0,0,0-.49l-.94-1.86a.28.28,0,0,0-.49,0l-1,1.86a.6.6,0,0,0,0,.49Zm8.68,0a.28.28,0,0,0,.49,0l.94-1.85a.53.53,0,0,0,0-.49l-.69-1.38-.82-.32-.86,1.7a.53.53,0,0,0,0,.49ZM107,156.34a.28.28,0,0,0-.49,0l-.71,1.39a22.73,22.73,0,0,0,1.69,1.85l.45-.9a.53.53,0,0,0,0-.49Zm38.59-9-.95,1.85a.6.6,0,0,0,0,.49l.95,1.86a.28.28,0,0,0,.49,0l.17-.34a22.1,22.1,0,0,0,.7-2.13l-.87-1.73A.28.28,0,0,0,145.57,147.34Zm-42,1.85-.94-1.85a.28.28,0,0,0-.49,0l-.88,1.73a22.15,22.15,0,0,0,.71,2.13l.17.34a.28.28,0,0,0,.49,0l.94-1.86A.53.53,0,0,0,103.58,149.19Zm40.31,2.65a.28.28,0,0,0-.5,0l-.94,1.85a.6.6,0,0,0,0,.49l.94,1.86a.31.31,0,0,0,.21.14c.42-.61.81-1.24,1.17-1.88l.06-.12a.53.53,0,0,0,0-.49Zm-28.72-27.3a.28.28,0,0,0,.49,0l1-1.85a.6.6,0,0,0,0-.49l-.86-1.7-.82.32-.7,1.38a.53.53,0,0,0,0,.49Zm7,36.3a.28.28,0,0,0-.5,0l-.94,1.85a.6.6,0,0,0,0,.49l.94,1.86a.28.28,0,0,0,.5,0l.94-1.86a.53.53,0,0,0,0-.49Zm13,0a.28.28,0,0,0-.49,0l-.94,1.85a.53.53,0,0,0,0,.49l.48.94q1-.47,1.92-1a.53.53,0,0,0,0-.41Zm-8.68,0a.28.28,0,0,0-.49,0l-.94,1.85a.53.53,0,0,0,0,.49L126,165a.28.28,0,0,0,.49,0l.94-1.86a.53.53,0,0,0,0-.49Zm-15.2-36.3.94-1.85a.53.53,0,0,0,0-.49v0c-.68.4-1.34.82-2,1.28l.56,1.1A.28.28,0,0,0,111.32,124.54Zm2.17,36.3a.28.28,0,0,0-.49,0l-.94,1.85a.58.58,0,0,0,0,.41q.93.56,1.92,1l.48-.94a.6.6,0,0,0,0-.49Zm6-36.3a.28.28,0,0,0,.5,0l.94-1.85a.53.53,0,0,0,0-.49l-.94-1.86a.28.28,0,0,0-.5,0l-.94,1.86a.53.53,0,0,0,0,.49Zm-15.19,18.3-.94,1.86a.51.51,0,0,0,0,.48l.94,1.86a.28.28,0,0,0,.49,0l.94-1.86a.51.51,0,0,0,0-.48l-.94-1.86A.28.28,0,0,0,104.32,142.84Zm-2.17-.3a.28.28,0,0,0,.49,0l.94-1.86a.51.51,0,0,0,0-.48l-.94-1.86a.28.28,0,0,0-.49,0l-1,1.86a.57.57,0,0,0,0,.48Zm-.74,2.16-.94-1.86-.07-.07a23.51,23.51,0,0,0,.31,3.78l.7-1.37A.51.51,0,0,0,101.41,144.7Zm2-8.52.94,1.86a.28.28,0,0,0,.49,0l.94-1.86a.51.51,0,0,0,0-.48l-.94-1.86a.28.28,0,0,0-.49,0l-.94,1.86A.51.51,0,0,0,103.38,136.18Zm-1.95-.42c-.09.29-.18.59-.25.88l.23-.46A.55.55,0,0,0,101.43,135.76Zm4.32,17.93-.94-1.85a.28.28,0,0,0-.49,0l-.94,1.85a.53.53,0,0,0,0,.49l.05.12c.37.64.76,1.27,1.18,1.88a.29.29,0,0,0,.2-.14l.94-1.86A.53.53,0,0,0,105.75,153.69Zm-3.11-20.15.94-1.86a.51.51,0,0,0,0-.48l-.1-.2a26.12,26.12,0,0,0-1.28,2.6A.27.27,0,0,0,102.64,133.54Zm3.85,4.8-.94,1.86a.51.51,0,0,0,0,.48l.94,1.86a.28.28,0,0,0,.49,0l.94-1.86a.51.51,0,0,0,0-.48l-.94-1.86A.28.28,0,0,0,106.49,138.34Zm6.51-4.5-.94,1.86a.51.51,0,0,0,0,.48L113,138a.28.28,0,0,0,.49,0l1-1.86a.57.57,0,0,0,0-.48l-1-1.86A.28.28,0,0,0,113,133.84Zm2.66,8.7,1-1.86a.57.57,0,0,0,0-.48l-1-1.86a.28.28,0,0,0-.49,0l-.94,1.86a.51.51,0,0,0,0,.48l.94,1.86A.28.28,0,0,0,115.66,142.54Zm-3.4-2.34-.94-1.86a.28.28,0,0,0-.49,0l-.94,1.86a.51.51,0,0,0,0,.48l.94,1.86a.28.28,0,0,0,.49,0l.94-1.86A.51.51,0,0,0,112.26,140.2Zm-3.6-6.36-.94,1.86a.51.51,0,0,0,0,.48l.94,1.86a.28.28,0,0,0,.49,0l.94-1.86a.51.51,0,0,0,0-.48l-.94-1.86A.28.28,0,0,0,108.66,133.84Zm2.17,17.7a.28.28,0,0,0,.49,0l.94-1.86a.53.53,0,0,0,0-.49l-.94-1.85a.28.28,0,0,0-.49,0l-.94,1.85a.53.53,0,0,0,0,.49Zm17.37,0a.28.28,0,0,0,.49,0l.94-1.86a.53.53,0,0,0,0-.49l-.94-1.85a.28.28,0,0,0-.49,0l-.94,1.85a.53.53,0,0,0,0,.49Zm8.68-27a.28.28,0,0,0,.49,0l.56-1.1c-.63-.46-1.29-.88-2-1.28l0,0a.53.53,0,0,0,0,.49Zm-14.7.3a.28.28,0,0,0-.5,0l-.94,1.86a.57.57,0,0,0,0,.48l.94,1.86a.28.28,0,0,0,.5,0l.94-1.86a.51.51,0,0,0,0-.48Zm8.68,0a.28.28,0,0,0-.49,0l-.94,1.86a.51.51,0,0,0,0,.48l.94,1.86a.28.28,0,0,0,.49,0l.94-1.86a.51.51,0,0,0,0-.48Zm-13,36a.28.28,0,0,0-.5,0l-.94,1.85a.53.53,0,0,0,0,.49l.94,1.86a.28.28,0,0,0,.5,0l.94-1.86a.53.53,0,0,0,0-.49Zm0-36a.28.28,0,0,0-.5,0l-.94,1.86a.51.51,0,0,0,0,.48l.94,1.86a.28.28,0,0,0,.5,0l.94-1.86a.51.51,0,0,0,0-.48Zm22.44,6.84.94,1.86a.28.28,0,0,0,.5,0l.94-1.86a.51.51,0,0,0,0-.48l-.94-1.86a.28.28,0,0,0-.5,0l-.94,1.86A.51.51,0,0,0,140.28,131.68ZM134.71,156a.28.28,0,0,0,.49,0l.94-1.86a.53.53,0,0,0,0-.49l-.94-1.85a.28.28,0,0,0-.49,0l-.94,1.85a.53.53,0,0,0,0,.49Zm-.74,2.15-.94-1.85a.28.28,0,0,0-.49,0l-.94,1.85a.53.53,0,0,0,0,.49l.94,1.86a.28.28,0,0,0,.49,0l.94-1.86A.53.53,0,0,0,134,158.19ZM130.86,156l.94-1.86a.53.53,0,0,0,0-.49l-.94-1.85a.28.28,0,0,0-.49,0l-.94,1.85a.53.53,0,0,0,0,.49l.94,1.86A.28.28,0,0,0,130.86,156Zm6.51.3a.28.28,0,0,0-.49,0l-.94,1.85a.53.53,0,0,0,0,.49l.94,1.86a.28.28,0,0,0,.49,0l.95-1.86a.6.6,0,0,0,0-.49Zm3.85-4.8a.28.28,0,0,0,.5,0l.94-1.86a.53.53,0,0,0,0-.49l-.94-1.85a.28.28,0,0,0-.5,0l-.94,1.85a.53.53,0,0,0,0,.49Zm-.73,2.15-.94-1.85a.28.28,0,0,0-.5,0l-.94,1.85a.53.53,0,0,0,0,.49l.94,1.86a.28.28,0,0,0,.5,0l.94-1.86A.6.6,0,0,0,140.49,153.69Zm-14-28.85a.28.28,0,0,0-.49,0l-.94,1.86a.51.51,0,0,0,0,.48L126,129a.28.28,0,0,0,.49,0l.94-1.86a.51.51,0,0,0,0-.48Zm-8.68-4.8.12-.25-.65.19,0,.06A.28.28,0,0,0,117.84,120Zm1.67,45.3-.28.55,1.17.22-.39-.77A.28.28,0,0,0,119.51,165.34Zm2.67-45.3.51-1c-.49,0-1,.07-1.45.13l.44.88A.28.28,0,0,0,122.18,120Zm4.34,0,.45-.88c-.48-.06-1-.1-1.46-.13l.52,1A.28.28,0,0,0,126.52,120Zm-2.66,45.3-.53,1,.77,0,.78,0-.53-1A.28.28,0,0,0,123.86,165.34Zm4.34,0-.39.77,1.16-.22-.28-.55A.28.28,0,0,0,128.2,165.34Zm0-4.8a.28.28,0,0,0,.49,0l.94-1.86a.53.53,0,0,0,0-.49l-.94-1.85a.28.28,0,0,0-.49,0l-.94,1.85a.53.53,0,0,0,0,.49Zm-8.69,0a.28.28,0,0,0,.5,0l.94-1.86a.53.53,0,0,0,0-.49l-.94-1.85a.28.28,0,0,0-.5,0l-.94,1.85a.53.53,0,0,0,0,.49Zm4.35,0a.28.28,0,0,0,.49,0l.94-1.86a.53.53,0,0,0,0-.49l-.94-1.85a.28.28,0,0,0-.49,0l-1,1.85a.6.6,0,0,0,0,.49Zm7,.3a.28.28,0,0,0-.49,0l-.94,1.85a.53.53,0,0,0,0,.49l.94,1.86a.28.28,0,0,0,.49,0l.94-1.86a.53.53,0,0,0,0-.49Zm10.36-4.5-.94,1.85a.53.53,0,0,0,0,.49l.46.9a24.58,24.58,0,0,0,1.68-1.85l-.7-1.39A.28.28,0,0,0,141.22,156.34Zm-2.17,4.5-.2.41c.2-.17.41-.33.61-.51A.28.28,0,0,0,139.05,160.84ZM130.86,120l0-.06-.65-.19.13.25A.28.28,0,0,0,130.86,120Zm-22.11,40.7c.2.18.4.34.61.51l-.21-.41A.27.27,0,0,0,108.75,160.74Zm17.77-26.9a.28.28,0,0,0-.49,0l-.94,1.86a.51.51,0,0,0,0,.48L126,138a.28.28,0,0,0,.49,0l.94-1.86a.51.51,0,0,0,0-.48Zm-2.66-4.5-1,1.86a.57.57,0,0,0,0,.48l1,1.86a.28.28,0,0,0,.49,0l.94-1.86a.51.51,0,0,0,0-.48l-.94-1.86A.28.28,0,0,0,123.86,129.34Zm-4.35,0-.94,1.86a.51.51,0,0,0,0,.48l.94,1.86a.28.28,0,0,0,.5,0l.94-1.86a.51.51,0,0,0,0-.48l-.94-1.86A.28.28,0,0,0,119.51,129.34Zm-7.45-2.16L113,129a.28.28,0,0,0,.49,0l1-1.86a.57.57,0,0,0,0-.48l-1-1.86a.28.28,0,0,0-.49,0l-.94,1.86A.51.51,0,0,0,112.06,127.18Zm5.78,6.66a.28.28,0,0,0-.5,0l-.94,1.86a.51.51,0,0,0,0,.48l.94,1.86a.28.28,0,0,0,.5,0l.94-1.86a.51.51,0,0,0,0-.48Zm-2.67-4.5-.94,1.86a.51.51,0,0,0,0,.48l.94,1.86a.28.28,0,0,0,.49,0l1-1.86a.57.57,0,0,0,0-.48l-1-1.86A.28.28,0,0,0,115.17,129.34Zm7,4.5a.28.28,0,0,0-.5,0l-.94,1.86a.57.57,0,0,0,0,.48l.94,1.86a.28.28,0,0,0,.5,0l.94-1.86a.51.51,0,0,0,0-.48Zm15.19-4.5a.28.28,0,0,0-.49,0l-.94,1.86a.51.51,0,0,0,0,.48l.94,1.86a.28.28,0,0,0,.49,0l.95-1.86a.57.57,0,0,0,0-.48Zm-3.6-2.16.94,1.86a.28.28,0,0,0,.49,0l.94-1.86a.51.51,0,0,0,0-.48l-.94-1.86a.28.28,0,0,0-.49,0l-.94,1.86A.51.51,0,0,0,133.77,127.18Zm-5.57,2.16-.94,1.86a.51.51,0,0,0,0,.48l.94,1.86a.28.28,0,0,0,.49,0l.94-1.86a.51.51,0,0,0,0-.48l-.94-1.86A.28.28,0,0,0,128.2,129.34Zm10.85-.3a.28.28,0,0,0,.5,0l.94-1.86a.57.57,0,0,0,0-.48l-.94-1.86a.28.28,0,0,0-.5,0l-.94,1.86a.51.51,0,0,0,0,.48Zm-8.19,9,.94-1.86a.51.51,0,0,0,0-.48l-.94-1.86a.28.28,0,0,0-.49,0l-.94,1.86a.51.51,0,0,0,0,.48l.94,1.86A.28.28,0,0,0,130.86,138Zm-4.34,18,.94-1.86a.53.53,0,0,0,0-.49l-.94-1.85a.28.28,0,0,0-.49,0l-.94,1.85a.53.53,0,0,0,0,.49L126,156A.28.28,0,0,0,126.52,156Zm6.51-26.7a.28.28,0,0,0-.49,0l-.94,1.86a.51.51,0,0,0,0,.48l.94,1.86a.28.28,0,0,0,.49,0l.94-1.86a.51.51,0,0,0,0-.48ZM117.34,156a.28.28,0,0,0,.5,0l.94-1.86a.53.53,0,0,0,0-.49l-.94-1.85a.28.28,0,0,0-.5,0l-.94,1.85a.53.53,0,0,0,0,.49Zm2.17-4.5a.28.28,0,0,0,.5,0l.94-1.86a.53.53,0,0,0,0-.49l-.94-1.85a.28.28,0,0,0-.5,0l-.94,1.85a.53.53,0,0,0,0,.49Zm-2.9,6.65-1-1.85a.28.28,0,0,0-.49,0l-.94,1.85a.53.53,0,0,0,0,.49l.94,1.86a.28.28,0,0,0,.49,0l1-1.86A.6.6,0,0,0,116.61,158.19Zm7.25-6.65a.28.28,0,0,0,.49,0l.94-1.86a.53.53,0,0,0,0-.49l-.94-1.85a.28.28,0,0,0-.49,0l-1,1.85a.6.6,0,0,0,0,.49ZM113,156a.28.28,0,0,0,.49,0l1-1.86a.6.6,0,0,0,0-.49l-1-1.85a.28.28,0,0,0-.49,0l-.94,1.85a.53.53,0,0,0,0,.49Zm9.18,0,.94-1.86a.53.53,0,0,0,0-.49l-.94-1.85a.28.28,0,0,0-.5,0l-.94,1.85a.6.6,0,0,0,0,.49l.94,1.86A.28.28,0,0,0,122.18,156Zm-15.69-22.5a.28.28,0,0,0,.49,0l.94-1.86a.51.51,0,0,0,0-.48l-.94-1.86a.28.28,0,0,0-.49,0l-.94,1.86a.51.51,0,0,0,0,.48Zm5.77,24.65-.94-1.85a.28.28,0,0,0-.49,0l-.94,1.85a.53.53,0,0,0,0,.49l.94,1.86a.28.28,0,0,0,.49,0l.94-1.86A.53.53,0,0,0,112.26,158.19ZM108.66,129a.28.28,0,0,0,.49,0l.94-1.86a.51.51,0,0,0,0-.48l-.94-1.86a.28.28,0,0,0-.49,0l-.94,1.86a.51.51,0,0,0,0,.48Zm2.66.3a.28.28,0,0,0-.49,0l-.94,1.86a.51.51,0,0,0,0,.48l.94,1.86a.28.28,0,0,0,.49,0l.94-1.86a.51.51,0,0,0,0-.48Zm-6.51-.3.21-.41-.39.54A.26.26,0,0,0,104.81,129Zm4.34,27,.94-1.86a.53.53,0,0,0,0-.49l-.94-1.85a.28.28,0,0,0-.49,0l-.94,1.85a.53.53,0,0,0,0,.49l.94,1.86A.28.28,0,0,0,109.15,156Z"/><circle class="cls-9" cx="159.04" cy="106.76" r="43.33"/><circle class="cls-6" cx="161.13" cy="104.61" r="38.08" transform="translate(-27.77 69.63) rotate(-22.5)"/><circle class="cls-10" cx="161.13" cy="104.61" r="33.19"/><g class="cls-11"><path class="cls-12" d="M191.77,109.25a.27.27,0,0,0-.49,0l-.94,1.85a.53.53,0,0,0,0,.49l.94,1.85a.28.28,0,0,0,.49,0l.94-1.85a.53.53,0,0,0,0-.49Zm-1.23,6.35-.94-1.85a.27.27,0,0,0-.49,0l-.94,1.85a.53.53,0,0,0,0,.49l.94,1.85a.28.28,0,0,0,.49,0l.94-1.85A.53.53,0,0,0,190.54,115.6Zm-3.11-11.16.94-1.85a.53.53,0,0,0,0-.49l-.94-1.85a.27.27,0,0,0-.49,0L186,102.1a.53.53,0,0,0,0,.49l.94,1.85A.27.27,0,0,0,187.43,104.44Zm6.51.31a.27.27,0,0,0-.49,0l-.94,1.85a.53.53,0,0,0,0,.49l.94,1.85a.28.28,0,0,0,.49,0l.12-.22q.19-1.62.24-3.27Zm-4.34-4.81.94-1.85a.53.53,0,0,0,0-.49l-.94-1.85a.27.27,0,0,0-.49,0l-.94,1.85a.53.53,0,0,0,0,.49l.94,1.85A.27.27,0,0,0,189.6,99.94Zm-2.17,13.5.94-1.85a.53.53,0,0,0,0-.49l-.94-1.85a.27.27,0,0,0-.49,0L186,111.1a.53.53,0,0,0,0,.49l.94,1.85A.28.28,0,0,0,187.43,113.44ZM182.6,91.25l-.95,1.85a.6.6,0,0,0,0,.49l.95,1.85a.27.27,0,0,0,.49,0l.94-1.85a.53.53,0,0,0,0-.49l-.94-1.85A.27.27,0,0,0,182.6,91.25Zm-40.76,26.69.94-1.85a.53.53,0,0,0,0-.49l-.94-1.85a.27.27,0,0,0-.49,0l-.95,1.85a.6.6,0,0,0,0,.49l.95,1.85A.28.28,0,0,0,141.84,117.94Zm47.27-27a.27.27,0,0,0,.49,0l.91-1.79c-.43-.82-.9-1.62-1.4-2.4l-.94,1.85a.53.53,0,0,0,0,.49Zm-1.68.31a.27.27,0,0,0-.49,0L186,93.1a.53.53,0,0,0,0,.49l.94,1.85a.27.27,0,0,0,.49,0l.94-1.85a.53.53,0,0,0,0-.49Zm-2.17,8.69.94-1.85a.53.53,0,0,0,0-.49l-.94-1.85a.27.27,0,0,0-.49,0l-1,1.85a.6.6,0,0,0,0,.49l1,1.85A.27.27,0,0,0,185.26,99.94Zm-13,9,.94-1.85a.53.53,0,0,0,0-.49l-.94-1.85a.27.27,0,0,0-.49,0l-.94,1.85a.53.53,0,0,0,0,.49l.94,1.85A.28.28,0,0,0,172.23,108.94Zm6.52,4.5.94-1.85a.53.53,0,0,0,0-.49l-.94-1.85a.28.28,0,0,0-.5,0l-.94,1.85a.53.53,0,0,0,0,.49l.94,1.85A.28.28,0,0,0,178.75,113.44Zm3.85-13.19-.95,1.85a.6.6,0,0,0,0,.49l.95,1.85a.27.27,0,0,0,.49,0l.94-1.85a.53.53,0,0,0,0-.49l-.94-1.85A.27.27,0,0,0,182.6,100.25Zm-1.68,8.69.94-1.85a.53.53,0,0,0,0-.49l-.94-1.85a.28.28,0,0,0-.5,0l-.94,1.85a.53.53,0,0,0,0,.49l.94,1.85A.28.28,0,0,0,180.92,108.94Zm-6.52,4.5.95-1.85a.6.6,0,0,0,0-.49l-.95-1.85a.27.27,0,0,0-.49,0L173,111.1a.53.53,0,0,0,0,.49l.94,1.85A.28.28,0,0,0,174.4,113.44Zm1.68-4.5a.28.28,0,0,0,.49,0l1-1.85a.6.6,0,0,0,0-.49l-1-1.85a.27.27,0,0,0-.49,0l-.94,1.85a.53.53,0,0,0,0,.49Zm9.18,0,.94-1.85a.53.53,0,0,0,0-.49l-.94-1.85a.27.27,0,0,0-.49,0l-1,1.85a.6.6,0,0,0,0,.49l1,1.85A.28.28,0,0,0,185.26,108.94Zm-6.51-17.69a.28.28,0,0,0-.5,0l-.94,1.85a.53.53,0,0,0,0,.49l.94,1.85a.28.28,0,0,0,.5,0l.94-1.85a.53.53,0,0,0,0-.49Zm11.59,2.34.94,1.85a.27.27,0,0,0,.49,0l.78-1.53c-.32-1-.69-1.89-1.09-2.8a.28.28,0,0,0-.18.14l-.94,1.85A.53.53,0,0,0,190.34,93.59Zm2.17,4.5.94,1.85a.27.27,0,0,0,.49,0l0-.07a34.78,34.78,0,0,0-.74-3.71l-.73,1.44A.53.53,0,0,0,192.51,98.09Zm-2.91,10.85.94-1.85a.53.53,0,0,0,0-.49l-.94-1.85a.27.27,0,0,0-.49,0l-.94,1.85a.53.53,0,0,0,0,.49l.94,1.85A.28.28,0,0,0,189.6,108.94Zm2.17-4.5.94-1.85a.53.53,0,0,0,0-.49l-.94-1.85a.27.27,0,0,0-.49,0l-.94,1.85a.53.53,0,0,0,0,.49l.94,1.85A.27.27,0,0,0,191.77,104.44ZM137.5,86.75a.28.28,0,0,0-.5,0l-.94,1.85a.53.53,0,0,0,0,.49l.94,1.85a.28.28,0,0,0,.5,0l.94-1.85a.53.53,0,0,0,0-.49Zm12.53,0-.94,1.85a.53.53,0,0,0,0,.49l.94,1.85a.27.27,0,0,0,.49,0l.94-1.85a.53.53,0,0,0,0-.49l-.94-1.85A.28.28,0,0,0,150,86.75Zm21.71,9-.94,1.85a.53.53,0,0,0,0,.49l.94,1.85a.27.27,0,0,0,.49,0l.94-1.85a.53.53,0,0,0,0-.49l-.94-1.85A.27.27,0,0,0,171.74,95.75Zm-32.56-4.5-1,1.85a.6.6,0,0,0,0,.49l1,1.85a.27.27,0,0,0,.49,0l.94-1.85a.53.53,0,0,0,0-.49l-.94-1.85A.27.27,0,0,0,139.18,91.25Zm2.17,4.5-.95,1.85a.6.6,0,0,0,0,.49l.95,1.85a.27.27,0,0,0,.49,0l.94-1.85a.53.53,0,0,0,0-.49l-.94-1.85A.27.27,0,0,0,141.35,95.75Zm7-4.5a.27.27,0,0,0-.49,0l-.94,1.85a.53.53,0,0,0,0,.49l.94,1.85a.27.27,0,0,0,.49,0l.94-1.85a.53.53,0,0,0,0-.49Zm-2.66-4.5-.94,1.85a.53.53,0,0,0,0,.49l.94,1.85a.27.27,0,0,0,.49,0l.94-1.85a.53.53,0,0,0,0-.49l-.94-1.85A.28.28,0,0,0,145.69,86.75ZM144,91.25a.27.27,0,0,0-.49,0l-.94,1.85a.53.53,0,0,0,0,.49l.94,1.85a.27.27,0,0,0,.49,0l.94-1.85a.53.53,0,0,0,0-.49Zm-4.83,22.19a.28.28,0,0,0,.49,0l.94-1.85a.53.53,0,0,0,0-.49l-.94-1.85a.27.27,0,0,0-.49,0l-1,1.85a.6.6,0,0,0,0,.49Zm-2.18,4.5a.28.28,0,0,0,.5,0l.94-1.85a.53.53,0,0,0,0-.49l-.94-1.85a.28.28,0,0,0-.5,0l-.94,1.85a.53.53,0,0,0,0,.49Zm39.08-31.19-.94,1.85a.53.53,0,0,0,0,.49l.94,1.85a.27.27,0,0,0,.49,0l1-1.85a.6.6,0,0,0,0-.49l-1-1.85A.28.28,0,0,0,176.08,86.75ZM136.27,120.1l-.94-1.85a.28.28,0,0,0-.5,0l-.94,1.85a.53.53,0,0,0,0,.49l.94,1.85a.28.28,0,0,0,.5,0l.94-1.85A.53.53,0,0,0,136.27,120.1ZM131,118.25a.21.21,0,0,0-.16-.13c.36.79.73,1.56,1.14,2.32a.56.56,0,0,0,0-.34Zm2.17-27.31.95-1.85a.6.6,0,0,0,0-.49l-.95-1.85c-.49.78-1,1.58-1.4,2.4l.91,1.79A.27.27,0,0,0,133.15,90.94Zm19,.31-.94,1.85a.53.53,0,0,0,0,.49l.94,1.85a.27.27,0,0,0,.49,0l.95-1.85a.6.6,0,0,0,0-.49l-.95-1.85A.27.27,0,0,0,152.2,91.25Zm15.69,4.5a.27.27,0,0,0-.49,0l-.94,1.85a.53.53,0,0,0,0,.49l.94,1.85a.27.27,0,0,0,.49,0l.94-1.85a.53.53,0,0,0,0-.49Zm3.85-9-.94,1.85a.53.53,0,0,0,0,.49l.94,1.85a.27.27,0,0,0,.49,0l.94-1.85a.53.53,0,0,0,0-.49l-.94-1.85A.28.28,0,0,0,171.74,86.75Zm-6.51,4.5-.94,1.85a.53.53,0,0,0,0,.49l.94,1.85a.27.27,0,0,0,.49,0l.94-1.85a.53.53,0,0,0,0-.49l-.94-1.85A.27.27,0,0,0,165.23,91.25Zm9.17,0a.27.27,0,0,0-.49,0L173,93.1a.53.53,0,0,0,0,.49l.94,1.85a.27.27,0,0,0,.49,0l.95-1.85a.6.6,0,0,0,0-.49Zm-4.34,0a.27.27,0,0,0-.49,0l-.94,1.85a.53.53,0,0,0,0,.49l.94,1.85a.27.27,0,0,0,.49,0l.94-1.85a.53.53,0,0,0,0-.49Zm-13.52,0-.94,1.85a.53.53,0,0,0,0,.49l.94,1.85a.28.28,0,0,0,.5,0l.94-1.85a.53.53,0,0,0,0-.49L157,91.25A.28.28,0,0,0,156.54,91.25Zm-1.68,4.5a.27.27,0,0,0-.49,0l-.94,1.85a.53.53,0,0,0,0,.49l.94,1.85a.27.27,0,0,0,.49,0l.95-1.85a.6.6,0,0,0,0-.49Zm6-4.5-.95,1.85a.6.6,0,0,0,0,.49l.95,1.85a.27.27,0,0,0,.49,0l.94-1.85a.53.53,0,0,0,0-.49l-.94-1.85A.27.27,0,0,0,160.89,91.25Zm-1.68,4.5a.28.28,0,0,0-.5,0l-.94,1.85a.53.53,0,0,0,0,.49l.94,1.85a.28.28,0,0,0,.5,0l.94-1.85a.53.53,0,0,0,0-.49Zm4.34,0a.27.27,0,0,0-.49,0l-.95,1.85a.6.6,0,0,0,0,.49l.95,1.85a.27.27,0,0,0,.49,0l.94-1.85a.53.53,0,0,0,0-.49Zm17.37,0a.28.28,0,0,0-.5,0l-.94,1.85a.53.53,0,0,0,0,.49l.94,1.85a.28.28,0,0,0,.5,0l.94-1.85a.53.53,0,0,0,0-.49Zm-.5-13.81a.28.28,0,0,0,.5,0l.94-1.85a.53.53,0,0,0,0-.49l-.78-1.53-.57-.41a.26.26,0,0,0-.09.09l-.94,1.85a.53.53,0,0,0,0,.49Zm-45.59,18.31-.94,1.85a.53.53,0,0,0,0,.49l.94,1.85a.28.28,0,0,0,.5,0l.94-1.85a.53.53,0,0,0,0-.49l-.94-1.85A.28.28,0,0,0,134.83,100.25Zm-2.17,8.69a.28.28,0,0,0,.49,0l.95-1.85a.6.6,0,0,0,0-.49l-.95-1.85a.27.27,0,0,0-.49,0l-.94,1.85a.53.53,0,0,0,0,.49Zm-2.17-8.69-.94,1.85a.53.53,0,0,0,0,.49l.94,1.85a.27.27,0,0,0,.49,0l1-1.85a.6.6,0,0,0,0-.49l-1-1.85A.27.27,0,0,0,130.49,100.25Zm4.84-13.81.94-1.85a.53.53,0,0,0,0-.49l-.48-.93c-.55.66-1.08,1.33-1.59,2l.63,1.24A.28.28,0,0,0,135.33,86.44Zm-4.35,9,1-1.85a.6.6,0,0,0,0-.49l-1-1.85a.25.25,0,0,0-.18-.14c-.4.91-.77,1.85-1.09,2.8l.78,1.53A.27.27,0,0,0,131,95.44Zm-2.17,4.5.94-1.85a.53.53,0,0,0,0-.49L129,96.16a32.48,32.48,0,0,0-.75,3.71l0,.07A.27.27,0,0,0,128.81,99.94Zm.94,6.66-.94-1.85a.27.27,0,0,0-.49,0l-.36.7a32.26,32.26,0,0,0,.25,3.27l.11.22a.28.28,0,0,0,.49,0l.94-1.85A.53.53,0,0,0,129.75,106.6Zm1.23,6.84,1-1.85a.6.6,0,0,0,0-.49l-1-1.85a.27.27,0,0,0-.49,0l-.94,1.85a.53.53,0,0,0,0,.49l.94,1.85A.28.28,0,0,0,131,113.44Zm43.42-9,.95-1.85a.6.6,0,0,0,0-.49l-.95-1.85a.27.27,0,0,0-.49,0L173,102.1a.53.53,0,0,0,0,.49l.94,1.85A.27.27,0,0,0,174.4,104.44Zm-41.74-8.69-.94,1.85a.53.53,0,0,0,0,.49l.94,1.85a.27.27,0,0,0,.49,0l.95-1.85a.6.6,0,0,0,0-.49l-.95-1.85A.27.27,0,0,0,132.66,95.75Zm4.84,0a.28.28,0,0,0-.5,0l-.94,1.85a.53.53,0,0,0,0,.49l.94,1.85a.28.28,0,0,0,.5,0l.94-1.85a.53.53,0,0,0,0-.49Zm13,36a.28.28,0,0,0-.49,0l-.94,1.86a.53.53,0,0,0,0,.49l.9,1.77.46.16s.06-.05.07-.08l.94-1.85a.53.53,0,0,0,0-.49Zm4.34,0a.28.28,0,0,0-.49,0l-.94,1.86a.53.53,0,0,0,0,.49l.94,1.85a.28.28,0,0,0,.49,0l.95-1.85a.6.6,0,0,0,0-.49Zm9.63,1.86-.94-1.86a.28.28,0,0,0-.49,0l-.95,1.86a.6.6,0,0,0,0,.49l.95,1.85a.28.28,0,0,0,.49,0l.94-1.85A.53.53,0,0,0,164.49,133.6Zm-4.34,0-.94-1.86a.28.28,0,0,0-.5,0l-.94,1.86a.53.53,0,0,0,0,.49l.94,1.85a.28.28,0,0,0,.5,0l.94-1.85A.53.53,0,0,0,160.15,133.6Zm7.74-1.86a.28.28,0,0,0-.49,0l-.94,1.86a.53.53,0,0,0,0,.49l.94,1.85a.28.28,0,0,0,.49,0l.94-1.85a.53.53,0,0,0,0-.49Zm4.34,0a.28.28,0,0,0-.49,0l-.94,1.86a.53.53,0,0,0,0,.49l.94,1.85.07.08.46-.16.9-1.77a.53.53,0,0,0,0-.49Zm-7.94-56.15.94,1.85a.27.27,0,0,0,.49,0l.94-1.85a.53.53,0,0,0,0-.49l-.94-1.85a.28.28,0,0,0-.49,0l-.94,1.85A.53.53,0,0,0,164.29,75.59Zm-4.35,0,.95,1.85a.27.27,0,0,0,.49,0l.94-1.85a.53.53,0,0,0,0-.49l-.94-1.85a.28.28,0,0,0-.49,0l-.95,1.85A.6.6,0,0,0,159.94,75.59Zm14,1.85a.27.27,0,0,0,.49,0l.95-1.85a.6.6,0,0,0,0-.49l-.34-.65c-.46-.21-.93-.42-1.4-.61L173,75.1a.53.53,0,0,0,0,.49ZM134.1,115.6l-.95-1.85a.27.27,0,0,0-.49,0l-.94,1.85a.53.53,0,0,0,0,.49l.94,1.85a.28.28,0,0,0,.49,0l.95-1.85A.6.6,0,0,0,134.1,115.6Zm22.44-38.16a.28.28,0,0,0,.5,0l.94-1.85a.53.53,0,0,0,0-.49L157,73.25a.28.28,0,0,0-.5,0l-.94,1.85a.53.53,0,0,0,0,.49Zm-8.68,0a.27.27,0,0,0,.49,0l.94-1.85a.53.53,0,0,0,0-.49l-.64-1.26c-.47.19-.94.4-1.4.61l-.33.65a.53.53,0,0,0,0,.49Zm-13,13.81-.94,1.85a.53.53,0,0,0,0,.49l.94,1.85a.28.28,0,0,0,.5,0l.94-1.85a.53.53,0,0,0,0-.49l-.94-1.85A.28.28,0,0,0,134.83,91.25Zm26.06,9-.95,1.85a.6.6,0,0,0,0,.49l.95,1.85a.27.27,0,0,0,.49,0l.94-1.85a.53.53,0,0,0,0-.49l-.94-1.85A.27.27,0,0,0,160.89,100.25Zm-1.68,8.69.94-1.85a.53.53,0,0,0,0-.49l-.94-1.85a.28.28,0,0,0-.5,0l-.94,1.85a.53.53,0,0,0,0,.49l.94,1.85A.28.28,0,0,0,159.21,108.94Zm-7-8.69-.94,1.85a.53.53,0,0,0,0,.49l.94,1.85a.27.27,0,0,0,.49,0l.95-1.85a.6.6,0,0,0,0-.49l-.95-1.85A.27.27,0,0,0,152.2,100.25Zm2.66,8.69.95-1.85a.6.6,0,0,0,0-.49l-.95-1.85a.27.27,0,0,0-.49,0l-.94,1.85a.53.53,0,0,0,0,.49l.94,1.85A.28.28,0,0,0,154.86,108.94Zm8.69,0,.94-1.85a.53.53,0,0,0,0-.49l-.94-1.85a.27.27,0,0,0-.49,0l-.95,1.85a.6.6,0,0,0,0,.49l.95,1.85A.28.28,0,0,0,163.55,108.94Zm-7-8.69-.94,1.85a.53.53,0,0,0,0,.49l.94,1.85a.28.28,0,0,0,.5,0l.94-1.85a.53.53,0,0,0,0-.49l-.94-1.85A.28.28,0,0,0,156.54,100.25Zm22.21,4.19.94-1.85a.53.53,0,0,0,0-.49l-.94-1.85a.28.28,0,0,0-.5,0l-.94,1.85a.53.53,0,0,0,0,.49l.94,1.85A.28.28,0,0,0,178.75,104.44Zm-2.67-8.69-.94,1.85a.53.53,0,0,0,0,.49l.94,1.85a.27.27,0,0,0,.49,0l1-1.85a.6.6,0,0,0,0-.49l-1-1.85A.27.27,0,0,0,176.08,95.75Zm-8.19,13.19.94-1.85a.53.53,0,0,0,0-.49l-.94-1.85a.27.27,0,0,0-.49,0l-.94,1.85a.53.53,0,0,0,0,.49l.94,1.85A.28.28,0,0,0,167.89,108.94Zm-33.06,4.5a.28.28,0,0,0,.5,0l.94-1.85a.53.53,0,0,0,0-.49l-.94-1.85a.28.28,0,0,0-.5,0l-.94,1.85a.53.53,0,0,0,0,.49Zm33.8-10.85.94,1.85a.27.27,0,0,0,.49,0l.94-1.85a.53.53,0,0,0,0-.49l-.94-1.85a.27.27,0,0,0-.49,0l-.94,1.85A.53.53,0,0,0,168.63,102.59Zm-3.4-2.34-.94,1.85a.53.53,0,0,0,0,.49l.94,1.85a.27.27,0,0,0,.49,0l.94-1.85a.53.53,0,0,0,0-.49l-.94-1.85A.27.27,0,0,0,165.23,100.25Zm-23.39,8.69.94-1.85a.53.53,0,0,0,0-.49l-.94-1.85a.27.27,0,0,0-.49,0l-.95,1.85a.6.6,0,0,0,0,.49l.95,1.85A.28.28,0,0,0,141.84,108.94Zm6.51-4.5.94-1.85a.53.53,0,0,0,0-.49l-.94-1.85a.27.27,0,0,0-.49,0l-.94,1.85a.53.53,0,0,0,0,.49l.94,1.85A.27.27,0,0,0,148.35,104.44Zm-9.17-4.19-1,1.85a.6.6,0,0,0,0,.49l1,1.85a.27.27,0,0,0,.49,0l.94-1.85a.53.53,0,0,0,0-.49l-.94-1.85A.27.27,0,0,0,139.18,100.25ZM150,95.75l-.94,1.85a.53.53,0,0,0,0,.49l.94,1.85a.27.27,0,0,0,.49,0l.94-1.85a.53.53,0,0,0,0-.49l-.94-1.85A.27.27,0,0,0,150,95.75Zm-13,13.19a.28.28,0,0,0,.5,0l.94-1.85a.53.53,0,0,0,0-.49l-.94-1.85a.28.28,0,0,0-.5,0l-.94,1.85a.53.53,0,0,0,0,.49Zm11.35,4.5.94-1.85a.53.53,0,0,0,0-.49l-.94-1.85a.27.27,0,0,0-.49,0l-.94,1.85a.53.53,0,0,0,0,.49l.94,1.85A.28.28,0,0,0,148.35,113.44Zm-2.66-4.5a.28.28,0,0,0,.49,0l.94-1.85a.53.53,0,0,0,0-.49l-.94-1.85a.27.27,0,0,0-.49,0l-.94,1.85a.53.53,0,0,0,0,.49Zm0-13.19-.94,1.85a.53.53,0,0,0,0,.49l.94,1.85a.27.27,0,0,0,.49,0l.94-1.85a.53.53,0,0,0,0-.49l-.94-1.85A.27.27,0,0,0,145.69,95.75ZM150,108.94a.28.28,0,0,0,.49,0l.94-1.85a.53.53,0,0,0,0-.49l-.94-1.85a.27.27,0,0,0-.49,0l-.94,1.85a.53.53,0,0,0,0,.49ZM145,102.1l-.94-1.85a.27.27,0,0,0-.49,0l-.94,1.85a.53.53,0,0,0,0,.49l.94,1.85a.27.27,0,0,0,.49,0l.94-1.85A.53.53,0,0,0,145,102.1Zm-1.43,11.34a.28.28,0,0,0,.49,0l.94-1.85a.53.53,0,0,0,0-.49l-.94-1.85a.27.27,0,0,0-.49,0l-.94,1.85a.53.53,0,0,0,0,.49Zm13-31.19-.94,1.85a.53.53,0,0,0,0,.49l.94,1.85a.28.28,0,0,0,.5,0l.94-1.85a.53.53,0,0,0,0-.49L157,82.25A.28.28,0,0,0,156.54,82.25Zm22.21,45a.28.28,0,0,0-.5,0l-.94,1.86a.53.53,0,0,0,0,.49l.94,1.85a.28.28,0,0,0,.5,0l.94-1.85a.53.53,0,0,0,0-.49Zm-2.67-.3a.28.28,0,0,0,.49,0l1-1.85a.6.6,0,0,0,0-.49l-1-1.85a.27.27,0,0,0-.49,0l-.94,1.85a.53.53,0,0,0,0,.49Zm-6.51-4.5a.28.28,0,0,0,.49,0l.94-1.85a.53.53,0,0,0,0-.49l-.94-1.85a.27.27,0,0,0-.49,0l-.94,1.85a.53.53,0,0,0,0,.49Zm13,0a.28.28,0,0,0,.49,0l.94-1.85a.53.53,0,0,0,0-.49l-.94-1.85a.27.27,0,0,0-.49,0l-.95,1.85a.6.6,0,0,0,0,.49Zm-7.25,6.66-.95-1.86a.28.28,0,0,0-.49,0L173,129.1a.53.53,0,0,0,0,.49l.94,1.85a.28.28,0,0,0,.49,0l.95-1.85A.6.6,0,0,0,175.35,129.1Zm-3.12-2.16.94-1.85a.53.53,0,0,0,0-.49l-.94-1.85a.27.27,0,0,0-.49,0l-.94,1.85a.53.53,0,0,0,0,.49l.94,1.85A.28.28,0,0,0,172.23,126.94Zm9.63-2.34-.94-1.85a.28.28,0,0,0-.5,0l-.94,1.85a.53.53,0,0,0,0,.49l.94,1.85a.28.28,0,0,0,.5,0l.94-1.85A.53.53,0,0,0,181.86,124.6Zm3.4-1.85a.27.27,0,0,0-.49,0l-1,1.85a.6.6,0,0,0,0,.49l1,1.85a.28.28,0,0,0,.49,0l.94-1.85a.53.53,0,0,0,0-.49ZM169.57,77.44a.27.27,0,0,0,.49,0l.94-1.85a.53.53,0,0,0,0-.49l-.94-1.85a.28.28,0,0,0-.49,0l-.94,1.85a.53.53,0,0,0,0,.49Zm-1.68.31a.28.28,0,0,0-.49,0l-.94,1.85a.53.53,0,0,0,0,.49l.94,1.85a.27.27,0,0,0,.49,0l.94-1.85a.53.53,0,0,0,0-.49Zm17.37,4.19,0-.08c-.38-.41-.78-.81-1.18-1.2l.65,1.28A.27.27,0,0,0,185.26,81.94Zm-6.51-4.5.37-.73c-.59-.38-1.18-.74-1.79-1.08l.92,1.81A.28.28,0,0,0,178.75,77.44Zm-26.55,45a.28.28,0,0,0,.49,0l.95-1.85a.6.6,0,0,0,0-.49l-.95-1.85a.27.27,0,0,0-.49,0l-.94,1.85a.53.53,0,0,0,0,.49Zm2.66,4.5.95-1.85a.6.6,0,0,0,0-.49l-.95-1.85a.27.27,0,0,0-.49,0l-.94,1.85a.53.53,0,0,0,0,.49l.94,1.85A.28.28,0,0,0,154.86,126.94Zm8.69-49.19a.28.28,0,0,0-.49,0l-.95,1.85a.6.6,0,0,0,0,.49l.95,1.85a.27.27,0,0,0,.49,0l.94-1.85a.53.53,0,0,0,0-.49ZM150,126.94a.28.28,0,0,0,.49,0l.94-1.85a.53.53,0,0,0,0-.49l-.94-1.85a.27.27,0,0,0-.49,0l-.94,1.85a.53.53,0,0,0,0,.49Zm-.74,2.16-.94-1.86a.28.28,0,0,0-.49,0l-.94,1.86a.53.53,0,0,0,0,.49l.94,1.85a.28.28,0,0,0,.49,0l.94-1.85A.53.53,0,0,0,149.29,129.1Zm-3.6-2.16a.28.28,0,0,0,.49,0l.94-1.85a.53.53,0,0,0,0-.49l-.94-1.85a.27.27,0,0,0-.49,0l-.94,1.85a.53.53,0,0,0,0,.49Zm19.54-4.5a.28.28,0,0,0,.49,0l.94-1.85a.53.53,0,0,0,0-.49l-.94-1.85a.27.27,0,0,0-.49,0l-.94,1.85a.53.53,0,0,0,0,.49Zm-8.69,0a.28.28,0,0,0,.5,0l.94-1.85a.53.53,0,0,0,0-.49l-.94-1.85a.28.28,0,0,0-.5,0l-.94,1.85a.53.53,0,0,0,0,.49Zm11.35,4.5.94-1.85a.53.53,0,0,0,0-.49l-.94-1.85a.27.27,0,0,0-.49,0l-.94,1.85a.53.53,0,0,0,0,.49l.94,1.85A.28.28,0,0,0,167.89,126.94Zm-4.34,0,.94-1.85a.53.53,0,0,0,0-.49l-.94-1.85a.27.27,0,0,0-.49,0l-.95,1.85a.6.6,0,0,0,0,.49l.95,1.85A.28.28,0,0,0,163.55,126.94Zm-4.34,0,.94-1.85a.53.53,0,0,0,0-.49l-.94-1.85a.28.28,0,0,0-.5,0l-.94,1.85a.53.53,0,0,0,0,.49l.94,1.85A.28.28,0,0,0,159.21,126.94Zm1.68-4.5a.28.28,0,0,0,.49,0l.94-1.85a.53.53,0,0,0,0-.49l-.94-1.85a.27.27,0,0,0-.49,0l-.95,1.85a.6.6,0,0,0,0,.49Zm-6-49.49.53-1c-.47.08-.94.17-1.4.27l.38.77A.28.28,0,0,0,154.86,73Zm8.69,0,.7-1.39c-.65-.06-1.3-.1-2-.13l.77,1.52A.28.28,0,0,0,163.55,73Zm12.53,58.79-.94,1.86a.53.53,0,0,0,0,.49l.25.48c.7-.33,1.39-.7,2.07-1.08l-.89-1.75A.28.28,0,0,0,176.08,131.74Zm6.52-4.5-.95,1.86a.6.6,0,0,0,0,.49l.4.77c.62-.51,1.22-1,1.81-1.59l-.77-1.53A.28.28,0,0,0,182.6,127.24ZM145,129.1l-.94-1.86a.28.28,0,0,0-.49,0l-.94,1.86a.53.53,0,0,0,0,.49l.94,1.85a.28.28,0,0,0,.49,0l.94-1.85A.53.53,0,0,0,145,129.1ZM167.89,73l.39-.77q-.71-.15-1.41-.27l.53,1A.28.28,0,0,0,167.89,73Zm-8.68,0,.76-1.52c-.66,0-1.31.07-2,.13l.7,1.39A.28.28,0,0,0,159.21,73Zm-7,63.29-.14.28.9.25-.27-.53A.28.28,0,0,0,152.2,136.24Zm13,0-.7,1.37c.6-.06,1.18-.14,1.77-.23l-.58-1.14A.28.28,0,0,0,165.23,136.24Zm4.34,0-.27.53.9-.25-.14-.28A.28.28,0,0,0,169.57,136.24ZM159.21,77.75a.28.28,0,0,0-.5,0l-.94,1.85a.53.53,0,0,0,0,.49l.94,1.85a.28.28,0,0,0,.5,0l.94-1.85a.53.53,0,0,0,0-.49Zm-2.67,58.49-.57,1.14c.58.09,1.17.17,1.76.23l-.69-1.37A.28.28,0,0,0,156.54,136.24Zm4.35,0-.77,1.52,1,0,1,0-.77-1.52A.28.28,0,0,0,160.89,136.24Zm-19.54-54.3a.27.27,0,0,0,.49,0l.94-1.85a.53.53,0,0,0,0-.49l-.94-1.85a.2.2,0,0,0-.09-.09l-.57.41-.78,1.53a.6.6,0,0,0,0,.49Zm-1.68,45.3a.28.28,0,0,0-.49,0l-.78,1.53c.59.55,1.19,1.08,1.82,1.59l.39-.77a.53.53,0,0,0,0-.49ZM144,77.44l.92-1.81c-.61.34-1.2.7-1.79,1.08l.38.73A.27.27,0,0,0,144,77.44Zm10.85.31a.28.28,0,0,0-.49,0l-.94,1.85a.53.53,0,0,0,0,.49l.94,1.85a.27.27,0,0,0,.49,0l.95-1.85a.6.6,0,0,0,0-.49Zm14.71,53.69a.28.28,0,0,0,.49,0l.94-1.85a.53.53,0,0,0,0-.49l-.94-1.86a.28.28,0,0,0-.49,0l-.94,1.86a.53.53,0,0,0,0,.49Zm-17.37-54a.27.27,0,0,0,.49,0l.95-1.85a.6.6,0,0,0,0-.49l-.95-1.85a.28.28,0,0,0-.49,0l-.94,1.85a.53.53,0,0,0,0,.49Zm8.69,54a.28.28,0,0,0,.49,0l.94-1.85a.53.53,0,0,0,0-.49l-.94-1.86a.28.28,0,0,0-.49,0l-.95,1.86a.6.6,0,0,0,0,.49Zm4.34,0a.28.28,0,0,0,.49,0l.94-1.85a.53.53,0,0,0,0-.49l-.94-1.86a.28.28,0,0,0-.49,0l-.94,1.86a.53.53,0,0,0,0,.49Zm-8.69,0a.28.28,0,0,0,.5,0l.94-1.85a.53.53,0,0,0,0-.49l-.94-1.86a.28.28,0,0,0-.5,0l-.94,1.86a.53.53,0,0,0,0,.49Zm-4.34,0a.28.28,0,0,0,.49,0l.95-1.85a.6.6,0,0,0,0-.49l-.95-1.86a.28.28,0,0,0-.49,0l-.94,1.86a.53.53,0,0,0,0,.49Zm-6,.3a.28.28,0,0,0-.49,0l-.89,1.75c.68.38,1.37.75,2.08,1.08l.24-.48a.53.53,0,0,0,0-.49Zm13-13.8.94-1.85a.53.53,0,0,0,0-.49l-.94-1.85a.28.28,0,0,0-.5,0l-.94,1.85a.53.53,0,0,0,0,.49l.94,1.85A.28.28,0,0,0,159.21,117.94Zm10.36-4.5a.28.28,0,0,0,.49,0l.94-1.85a.53.53,0,0,0,0-.49l-.94-1.85a.27.27,0,0,0-.49,0l-.94,1.85a.53.53,0,0,0,0,.49Zm6.51,4.5a.28.28,0,0,0,.49,0l1-1.85a.6.6,0,0,0,0-.49l-1-1.85a.27.27,0,0,0-.49,0l-.94,1.85a.53.53,0,0,0,0,.49Zm4.84,0,.94-1.85a.53.53,0,0,0,0-.49l-.94-1.85a.28.28,0,0,0-.5,0l-.94,1.85a.53.53,0,0,0,0,.49l.94,1.85A.28.28,0,0,0,180.92,117.94Zm-6.52,4.5.95-1.85a.6.6,0,0,0,0-.49l-.95-1.85a.27.27,0,0,0-.49,0L173,120.1a.53.53,0,0,0,0,.49l.94,1.85A.28.28,0,0,0,174.4,122.44Zm-2.17-4.5.94-1.85a.53.53,0,0,0,0-.49l-.94-1.85a.27.27,0,0,0-.49,0l-.94,1.85a.53.53,0,0,0,0,.49l.94,1.85A.28.28,0,0,0,172.23,117.94Zm6.52,4.5.94-1.85a.53.53,0,0,0,0-.49l-.94-1.85a.28.28,0,0,0-.5,0l-.94,1.85a.53.53,0,0,0,0,.49l.94,1.85A.28.28,0,0,0,178.75,122.44Zm8.19-36a.27.27,0,0,0,.49,0l.63-1.24c-.51-.7-1-1.37-1.59-2l-.47.93a.53.53,0,0,0,0,.49Zm3.4,33.66a.5.5,0,0,0,0,.34c.41-.76.79-1.53,1.14-2.32a.23.23,0,0,0-.16.13Zm-5.08-2.16.94-1.85a.53.53,0,0,0,0-.49l-.94-1.85a.27.27,0,0,0-.49,0l-1,1.85a.6.6,0,0,0,0,.49l1,1.85A.28.28,0,0,0,185.26,117.94Zm2.17.31a.27.27,0,0,0-.49,0L186,120.1a.53.53,0,0,0,0,.49l.94,1.85a.28.28,0,0,0,.49,0l.94-1.85a.53.53,0,0,0,0-.49Zm-4.83-4.81a.28.28,0,0,0,.49,0l.94-1.85a.53.53,0,0,0,0-.49l-.94-1.85a.27.27,0,0,0-.49,0l-.95,1.85a.6.6,0,0,0,0,.49Zm-34.25,9,.94-1.85a.53.53,0,0,0,0-.49l-.94-1.85a.27.27,0,0,0-.49,0l-.94,1.85a.53.53,0,0,0,0,.49l.94,1.85A.28.28,0,0,0,148.35,122.44Zm1.68-4.5a.28.28,0,0,0,.49,0l.94-1.85a.53.53,0,0,0,0-.49l-.94-1.85a.27.27,0,0,0-.49,0l-.94,1.85a.53.53,0,0,0,0,.49Zm2.17-4.5a.28.28,0,0,0,.49,0l.95-1.85a.6.6,0,0,0,0-.49l-.95-1.85a.27.27,0,0,0-.49,0l-.94,1.85a.53.53,0,0,0,0,.49Zm33.06-26.69a.28.28,0,0,0-.49,0l-1,1.85a.6.6,0,0,0,0,.49l1,1.85a.27.27,0,0,0,.49,0l.94-1.85a.53.53,0,0,0,0-.49Zm-17.37,31.19.94-1.85a.53.53,0,0,0,0-.49l-.94-1.85a.27.27,0,0,0-.49,0l-.94,1.85a.53.53,0,0,0,0,.49l.94,1.85A.28.28,0,0,0,167.89,117.94Zm-22.2,0a.28.28,0,0,0,.49,0l.94-1.85a.53.53,0,0,0,0-.49l-.94-1.85a.27.27,0,0,0-.49,0l-.94,1.85a.53.53,0,0,0,0,.49Zm9.17,0,.95-1.85a.6.6,0,0,0,0-.49l-.95-1.85a.27.27,0,0,0-.49,0l-.94,1.85a.53.53,0,0,0,0,.49l.94,1.85A.28.28,0,0,0,154.86,117.94Zm8.69,0,.94-1.85a.53.53,0,0,0,0-.49l-.94-1.85a.27.27,0,0,0-.49,0l-.95,1.85a.6.6,0,0,0,0,.49l.95,1.85A.28.28,0,0,0,163.55,117.94Zm1.68-4.5a.28.28,0,0,0,.49,0l.94-1.85a.53.53,0,0,0,0-.49l-.94-1.85a.27.27,0,0,0-.49,0l-.94,1.85a.53.53,0,0,0,0,.49Zm-21.71,9a.28.28,0,0,0,.49,0l.94-1.85a.53.53,0,0,0,0-.49l-.94-1.85a.27.27,0,0,0-.49,0l-.94,1.85a.53.53,0,0,0,0,.49Zm13-9a.28.28,0,0,0,.5,0l.94-1.85a.53.53,0,0,0,0-.49l-.94-1.85a.28.28,0,0,0-.5,0l-.94,1.85a.53.53,0,0,0,0,.49Zm4.35,0a.28.28,0,0,0,.49,0l.94-1.85a.53.53,0,0,0,0-.49l-.94-1.85a.27.27,0,0,0-.49,0l-.95,1.85a.6.6,0,0,0,0,.49Zm7-26.69a.28.28,0,0,0-.49,0l-.94,1.85a.53.53,0,0,0,0,.49l.94,1.85a.27.27,0,0,0,.49,0l.94-1.85a.53.53,0,0,0,0-.49ZM144,82.25a.28.28,0,0,0-.49,0l-.94,1.85a.53.53,0,0,0,0,.49l.94,1.85a.27.27,0,0,0,.49,0l.94-1.85a.53.53,0,0,0,0-.49Zm4.34,0a.28.28,0,0,0-.49,0l-.94,1.85a.53.53,0,0,0,0,.49l.94,1.85a.27.27,0,0,0,.49,0l.94-1.85a.53.53,0,0,0,0-.49Zm-3.6-2.16.94,1.85a.27.27,0,0,0,.49,0l.94-1.85a.53.53,0,0,0,0-.49l-.94-1.85a.28.28,0,0,0-.49,0l-.94,1.85A.53.53,0,0,0,144.75,80.09Zm7.45,2.16-.94,1.85a.53.53,0,0,0,0,.49l.94,1.85a.27.27,0,0,0,.49,0l.95-1.85a.6.6,0,0,0,0-.49l-.95-1.85A.28.28,0,0,0,152.2,82.25Zm2.66,4.5a.28.28,0,0,0-.49,0l-.94,1.85a.53.53,0,0,0,0,.49l.94,1.85a.27.27,0,0,0,.49,0l.95-1.85a.6.6,0,0,0,0-.49Zm-5.77-6.66.94,1.85a.27.27,0,0,0,.49,0l.94-1.85a.53.53,0,0,0,0-.49l-.94-1.85a.28.28,0,0,0-.49,0l-.94,1.85A.53.53,0,0,0,149.09,80.09ZM138.44,124.6l-.94-1.85a.28.28,0,0,0-.5,0l-.94,1.85a.53.53,0,0,0,0,.49l.94,1.85a.28.28,0,0,0,.5,0l.94-1.85A.53.53,0,0,0,138.44,124.6Zm.74-2.16a.28.28,0,0,0,.49,0l.94-1.85a.53.53,0,0,0,0-.49l-.94-1.85a.27.27,0,0,0-.49,0l-1,1.85a.6.6,0,0,0,0,.49Zm2.17-35.69-.95,1.85a.6.6,0,0,0,0,.49l.95,1.85a.27.27,0,0,0,.49,0l.94-1.85a.53.53,0,0,0,0-.49l-.94-1.85A.28.28,0,0,0,141.35,86.75Zm-3.85-4.81.65-1.28c-.41.39-.8.79-1.19,1.2l0,.08A.28.28,0,0,0,137.5,81.94Zm1.68,4.5a.27.27,0,0,0,.49,0l.94-1.85a.53.53,0,0,0,0-.49l-.94-1.85a.28.28,0,0,0-.49,0l-1,1.85a.6.6,0,0,0,0,.49Zm42.47-1.85.95,1.85a.27.27,0,0,0,.49,0l.94-1.85a.53.53,0,0,0,0-.49l-.94-1.85a.28.28,0,0,0-.49,0l-.95,1.85A.6.6,0,0,0,181.65,84.59Zm-6.51-4.5.94,1.85a.27.27,0,0,0,.49,0l1-1.85a.6.6,0,0,0,0-.49l-1-1.85a.28.28,0,0,0-.49,0l-.94,1.85A.53.53,0,0,0,175.14,80.09Zm-4.34,0,.94,1.85a.27.27,0,0,0,.49,0l.94-1.85a.53.53,0,0,0,0-.49l-.94-1.85a.28.28,0,0,0-.49,0l-.94,1.85A.53.53,0,0,0,170.8,80.09Zm3.6,2.16a.28.28,0,0,0-.49,0L173,84.1a.53.53,0,0,0,0,.49l.94,1.85a.27.27,0,0,0,.49,0l.95-1.85a.6.6,0,0,0,0-.49Zm4.35,0a.28.28,0,0,0-.5,0l-.94,1.85a.53.53,0,0,0,0,.49l.94,1.85a.28.28,0,0,0,.5,0l.94-1.85a.53.53,0,0,0,0-.49Zm2.17,4.5a.28.28,0,0,0-.5,0l-.94,1.85a.53.53,0,0,0,0,.49l.94,1.85a.28.28,0,0,0,.5,0l.94-1.85a.53.53,0,0,0,0-.49Zm-21.71,0a.28.28,0,0,0-.5,0l-.94,1.85a.53.53,0,0,0,0,.49l.94,1.85a.28.28,0,0,0,.5,0l.94-1.85a.53.53,0,0,0,0-.49Zm4.34,0a.28.28,0,0,0-.49,0l-.95,1.85a.6.6,0,0,0,0,.49l.95,1.85a.27.27,0,0,0,.49,0l.94-1.85a.53.53,0,0,0,0-.49Zm6.51-4.5a.28.28,0,0,0-.49,0l-.94,1.85a.53.53,0,0,0,0,.49l.94,1.85a.27.27,0,0,0,.49,0l.94-1.85a.53.53,0,0,0,0-.49Zm-9.17,0-.95,1.85a.6.6,0,0,0,0,.49l.95,1.85a.27.27,0,0,0,.49,0l.94-1.85a.53.53,0,0,0,0-.49l-.94-1.85A.28.28,0,0,0,160.89,82.25ZM142.78,124.6l-.94-1.85a.27.27,0,0,0-.49,0l-.95,1.85a.6.6,0,0,0,0,.49l.95,1.85a.28.28,0,0,0,.49,0l.94-1.85A.53.53,0,0,0,142.78,124.6Zm22.45-42.35-.94,1.85a.53.53,0,0,0,0,.49l.94,1.85a.27.27,0,0,0,.49,0l.94-1.85a.53.53,0,0,0,0-.49l-.94-1.85A.28.28,0,0,0,165.23,82.25Z"/></g><g class="cls-4"><circle class="cls-13" cx="154.28" cy="182.97" r="38.92"/></g><circle class="cls-6" cx="156.39" cy="180.66" r="33.34" transform="translate(-57.23 73.6) rotate(-22.5)"/><circle class="cls-14" cx="156.39" cy="180.66" r="28.45"/><path class="cls-15" d="M180.52,176l.94-1.86a.57.57,0,0,0,0-.48l-.94-1.86a.28.28,0,0,0-.5,0l-.94,1.86a.51.51,0,0,0,0,.48L180,176A.28.28,0,0,0,180.52,176Zm1.67-4.5a.28.28,0,0,0,.5,0l.37-.75a27.47,27.47,0,0,0-1.21-2.78l-.6,1.19a.51.51,0,0,0,0,.48ZM180.52,185l.94-1.86a.57.57,0,0,0,0-.48l-.94-1.86a.28.28,0,0,0-.5,0l-.94,1.86a.51.51,0,0,0,0,.48L180,185A.28.28,0,0,0,180.52,185Zm-2.67-8.7-.94,1.86a.51.51,0,0,0,0,.48l.94,1.86a.28.28,0,0,0,.49,0l.95-1.86a.57.57,0,0,0,0-.48l-.95-1.86A.28.28,0,0,0,177.85,176.33ZM180,167a.28.28,0,0,0,.5,0l.39-.77c-.46-.78-.95-1.53-1.48-2.26l-.35.69a.53.53,0,0,0,0,.49Zm-6,13.5.94-1.86a.51.51,0,0,0,0-.48l-.94-1.86a.28.28,0,0,0-.49,0l-.94,1.86a.51.51,0,0,0,0,.48l.94,1.86A.28.28,0,0,0,174,180.53Zm2.17-8.7a.28.28,0,0,0-.49,0l-.94,1.86a.51.51,0,0,0,0,.48l.94,1.86a.28.28,0,0,0,.49,0l.94-1.86a.51.51,0,0,0,0-.48Zm1.68-4.5-.94,1.86a.51.51,0,0,0,0,.48l.94,1.86a.28.28,0,0,0,.49,0l.95-1.86a.57.57,0,0,0,0-.48l-.95-1.86A.28.28,0,0,0,177.85,167.33Zm-8.68,9-.94,1.86a.51.51,0,0,0,0,.48l.94,1.86a.28.28,0,0,0,.49,0l.94-1.86a.51.51,0,0,0,0-.48l-.94-1.86A.28.28,0,0,0,169.17,176.33ZM161,189.53l.94-1.86a.51.51,0,0,0,0-.48l-.94-1.86a.28.28,0,0,0-.5,0l-.94,1.86a.51.51,0,0,0,0,.48l.94,1.86A.28.28,0,0,0,161,189.53Zm1.67-4.5a.28.28,0,0,0,.5,0l.94-1.86a.51.51,0,0,0,0-.48l-.94-1.86a.28.28,0,0,0-.5,0l-.94,1.86a.57.57,0,0,0,0,.48Zm2.67,4.5.94-1.86a.51.51,0,0,0,0-.48l-.94-1.86a.28.28,0,0,0-.49,0l-1,1.86a.57.57,0,0,0,0,.48l1,1.86A.28.28,0,0,0,165.32,189.53Zm-7-4.5a.28.28,0,0,0,.5,0l.94-1.86a.57.57,0,0,0,0-.48l-.94-1.86a.28.28,0,0,0-.5,0l-.94,1.86a.51.51,0,0,0,0,.48Zm13.52,0,.94-1.86a.51.51,0,0,0,0-.48l-.94-1.86a.28.28,0,0,0-.49,0l-.94,1.86a.51.51,0,0,0,0,.48l.94,1.86A.28.28,0,0,0,171.83,185Zm-19.54-17.7a.28.28,0,0,0-.49,0l-.94,1.86a.51.51,0,0,0,0,.48l.94,1.86a.28.28,0,0,0,.49,0l.94-1.86a.51.51,0,0,0,0-.48Zm15.2,17.7.94-1.86a.51.51,0,0,0,0-.48l-.94-1.86a.28.28,0,0,0-.49,0l-.94,1.86a.51.51,0,0,0,0,.48L167,185A.28.28,0,0,0,167.49,185Zm6.51,4.5.94-1.86a.51.51,0,0,0,0-.48l-.94-1.86a.28.28,0,0,0-.49,0l-.94,1.86a.51.51,0,0,0,0,.48l.94,1.86A.28.28,0,0,0,174,189.53Zm-20-26.7-.94,1.86a.53.53,0,0,0,0,.49L154,167a.28.28,0,0,0,.49,0l.95-1.85a.6.6,0,0,0,0-.49l-.95-1.86A.28.28,0,0,0,154,162.83Zm13.52,9a.28.28,0,0,0-.49,0l-.94,1.86a.51.51,0,0,0,0,.48L167,176a.28.28,0,0,0,.49,0l.94-1.86a.51.51,0,0,0,0-.48Zm-4.34-9a.28.28,0,0,0-.5,0l-.94,1.86a.6.6,0,0,0,0,.49l.94,1.85a.28.28,0,0,0,.5,0l.94-1.85a.53.53,0,0,0,0-.49Zm1.68,4.5-1,1.86a.57.57,0,0,0,0,.48l1,1.86a.28.28,0,0,0,.49,0l.94-1.86a.51.51,0,0,0,0-.48l-.94-1.86A.28.28,0,0,0,164.83,167.33Zm7,8.7.94-1.86a.51.51,0,0,0,0-.48l-.94-1.86a.28.28,0,0,0-.49,0l-.94,1.86a.51.51,0,0,0,0,.48l.94,1.86A.28.28,0,0,0,171.83,176Zm3.85,18a.28.28,0,0,0,.49,0l.94-1.86a.53.53,0,0,0,0-.49l-.94-1.85a.28.28,0,0,0-.49,0l-.94,1.85a.53.53,0,0,0,0,.49ZM161,167.33a.28.28,0,0,0-.5,0l-.94,1.86a.51.51,0,0,0,0,.48l.94,1.86a.28.28,0,0,0,.5,0l.94-1.86a.51.51,0,0,0,0-.48Zm-4.35,22.2,1-1.86a.57.57,0,0,0,0-.48l-1-1.86a.28.28,0,0,0-.49,0l-.94,1.86a.51.51,0,0,0,0,.48l.94,1.86A.28.28,0,0,0,156.63,189.53Zm0-22.2a.28.28,0,0,0-.49,0l-.94,1.86a.51.51,0,0,0,0,.48l.94,1.86a.28.28,0,0,0,.49,0l1-1.86a.57.57,0,0,0,0-.48Zm1.68-4.5-.94,1.86a.53.53,0,0,0,0,.49l.94,1.85a.28.28,0,0,0,.5,0l.94-1.85a.6.6,0,0,0,0-.49l-.94-1.86A.28.28,0,0,0,158.31,162.83Zm10.86,4.5-.94,1.86a.51.51,0,0,0,0,.48l.94,1.86a.28.28,0,0,0,.49,0l.94-1.86a.51.51,0,0,0,0-.48l-.94-1.86A.28.28,0,0,0,169.17,167.33Zm13.52,18a.28.28,0,0,0-.5,0l-.94,1.86a.51.51,0,0,0,0,.48l.94,1.86a.28.28,0,0,0,.5,0l.94-1.86a.51.51,0,0,0,0-.48Zm0-4.8.94-1.86a.51.51,0,0,0,0-.48l-.94-1.86a.28.28,0,0,0-.5,0l-.94,1.86a.51.51,0,0,0,0,.48l.94,1.86A.28.28,0,0,0,182.69,180.53Zm-2.17,9.3a.28.28,0,0,0-.5,0l-.94,1.85a.53.53,0,0,0,0,.49L180,194a.28.28,0,0,0,.5,0l.94-1.86a.6.6,0,0,0,0-.49Zm-2.18,4.5a.28.28,0,0,0-.49,0l-.94,1.85a.53.53,0,0,0,0,.49l.94,1.86a.28.28,0,0,0,.49,0l.95-1.86a.6.6,0,0,0,0-.49Zm-4.34-27a.28.28,0,0,0-.49,0l-.94,1.86a.51.51,0,0,0,0,.48l.94,1.86a.28.28,0,0,0,.49,0l.94-1.86a.51.51,0,0,0,0-.48Zm10.36,8.7a.29.29,0,0,0,.11.11,29.9,29.9,0,0,0-.69-3.15l-.36.7a.51.51,0,0,0,0,.48Zm-9.62-10.85.94,1.85a.28.28,0,0,0,.49,0l.94-1.85a.53.53,0,0,0,0-.49l-.94-1.86a.28.28,0,0,0-.49,0l-.94,1.86A.53.53,0,0,0,174.74,165.18Zm3.58-2.62c-.35-.42-.7-.82-1.07-1.21l.6,1.18A.28.28,0,0,0,178.32,162.56ZM175.68,185a.28.28,0,0,0,.49,0l.94-1.86a.51.51,0,0,0,0-.48l-.94-1.86a.28.28,0,0,0-.49,0l-.94,1.86a.51.51,0,0,0,0,.48Zm-42.19-15.36.94,1.86a.28.28,0,0,0,.49,0l1-1.86a.57.57,0,0,0,0-.48l-1-1.86a.28.28,0,0,0-.49,0l-.94,1.86A.51.51,0,0,0,133.49,169.67Zm5.28-2.34-.94,1.86a.51.51,0,0,0,0,.48l.94,1.86a.28.28,0,0,0,.5,0l.94-1.86a.51.51,0,0,0,0-.48l-.94-1.86A.28.28,0,0,0,138.77,167.33Zm2.67,4.5a.28.28,0,0,0-.49,0l-.95,1.86a.57.57,0,0,0,0,.48L141,176a.28.28,0,0,0,.49,0l.94-1.86a.51.51,0,0,0,0-.48Zm-4.84,9-.94,1.86a.51.51,0,0,0,0,.48l.94,1.86a.28.28,0,0,0,.5,0l.94-1.86a.51.51,0,0,0,0-.48l-.94-1.86A.28.28,0,0,0,136.6,180.83Zm2.67-.3.94-1.86a.51.51,0,0,0,0-.48l-.94-1.86a.28.28,0,0,0-.5,0l-.94,1.86a.51.51,0,0,0,0,.48l.94,1.86A.28.28,0,0,0,139.27,180.53Zm-7.75,6.66-.94-1.86a.28.28,0,0,0-.49,0l-.94,1.86a.51.51,0,0,0,0,.48l.94,1.86a.28.28,0,0,0,.49,0l.94-1.86A.51.51,0,0,0,131.52,187.19Zm1.23-15.36a.28.28,0,0,0-.49,0l-.94,1.86a.51.51,0,0,0,0,.48l.94,1.86a.28.28,0,0,0,.49,0l.95-1.86a.57.57,0,0,0,0-.48Zm-2.66,4.5-.94,1.86a.51.51,0,0,0,0,.48l.94,1.86a.28.28,0,0,0,.49,0l.94-1.86a.51.51,0,0,0,0-.48l-.94-1.86A.28.28,0,0,0,130.09,176.33Zm-.74-2.16a.51.51,0,0,0,0-.48L129,173a29.93,29.93,0,0,0-.7,3.15.2.2,0,0,0,.11-.11Zm1.23-2.64.94-1.86a.51.51,0,0,0,0-.48l-.6-1.19a29.92,29.92,0,0,0-1.21,2.78l.38.75A.28.28,0,0,0,130.58,171.53Zm3.12,20.15-.95-1.85a.28.28,0,0,0-.49,0l-.94,1.85a.53.53,0,0,0,0,.49l.94,1.86a.28.28,0,0,0,.49,0l.95-1.86A.6.6,0,0,0,133.7,191.68Zm5.07-29.15a.28.28,0,0,0,.5,0l.94-1.85a.53.53,0,0,0,0-.49l-.94-1.86a.26.26,0,0,0-.3-.13l-.21.16-.93,1.83a.53.53,0,0,0,0,.49ZM154,185a.28.28,0,0,0,.49,0l.95-1.86a.57.57,0,0,0,0-.48l-.95-1.86a.28.28,0,0,0-.49,0l-.94,1.86a.51.51,0,0,0,0,.48Zm21.71,13.8-.94,1.85a.53.53,0,0,0,0,.49l.44.86c.61-.54,1.2-1.1,1.76-1.69l-.77-1.51A.28.28,0,0,0,175.68,198.83Zm-41.25-22.5-.94,1.86a.51.51,0,0,0,0,.48l.94,1.86a.28.28,0,0,0,.49,0l1-1.86a.57.57,0,0,0,0-.48l-1-1.86A.28.28,0,0,0,134.43,176.33Zm-2.17,8.7a.28.28,0,0,0,.49,0l.95-1.86a.57.57,0,0,0,0-.48l-.95-1.86a.28.28,0,0,0-.49,0l-.94,1.86a.51.51,0,0,0,0,.48Zm2.17,4.5a.28.28,0,0,0,.49,0l1-1.86a.57.57,0,0,0,0-.48l-1-1.86a.28.28,0,0,0-.49,0l-.94,1.86a.51.51,0,0,0,0,.48Zm2.17-17.7-.94,1.86a.51.51,0,0,0,0,.48l.94,1.86a.28.28,0,0,0,.5,0l.94-1.86a.51.51,0,0,0,0-.48l-.94-1.86A.28.28,0,0,0,136.6,171.83Zm0-4.8a.28.28,0,0,0,.5,0l.94-1.85a.53.53,0,0,0,0-.49l-.94-1.86a.28.28,0,0,0-.5,0l-.94,1.86a.53.53,0,0,0,0,.49Zm17.37,4.8-.94,1.86a.51.51,0,0,0,0,.48L154,176a.28.28,0,0,0,.49,0l.95-1.86a.57.57,0,0,0,0-.48l-.95-1.86A.28.28,0,0,0,154,171.83Zm-4.34,0-.94,1.86a.51.51,0,0,0,0,.48l.94,1.86a.28.28,0,0,0,.49,0l.94-1.86a.51.51,0,0,0,0-.48l-.94-1.86A.28.28,0,0,0,149.63,171.83Zm2.66,8.7.94-1.86a.51.51,0,0,0,0-.48l-.94-1.86a.28.28,0,0,0-.49,0l-.94,1.86a.51.51,0,0,0,0,.48l.94,1.86A.28.28,0,0,0,152.29,180.53Zm6-8.7-.94,1.86a.51.51,0,0,0,0,.48l.94,1.86a.28.28,0,0,0,.5,0l.94-1.86a.57.57,0,0,0,0-.48l-.94-1.86A.28.28,0,0,0,158.31,171.83Zm-1.68,8.7,1-1.86a.57.57,0,0,0,0-.48l-1-1.86a.28.28,0,0,0-.49,0l-.94,1.86a.51.51,0,0,0,0,.48l.94,1.86A.28.28,0,0,0,156.63,180.53Zm-4.34,9,.94-1.86a.51.51,0,0,0,0-.48l-.94-1.86a.28.28,0,0,0-.49,0l-.94,1.86a.51.51,0,0,0,0,.48l.94,1.86A.28.28,0,0,0,152.29,189.53Zm-2.66-8.7-.94,1.86a.51.51,0,0,0,0,.48l.94,1.86a.28.28,0,0,0,.49,0l.94-1.86a.51.51,0,0,0,0-.48l-.94-1.86A.28.28,0,0,0,149.63,180.83Zm-2.17,8.7a.28.28,0,0,0,.49,0l.94-1.86a.51.51,0,0,0,0-.48l-.94-1.86a.28.28,0,0,0-.49,0l-.94,1.86a.51.51,0,0,0,0,.48Zm0-13.2-.94,1.86a.51.51,0,0,0,0,.48l.94,1.86a.28.28,0,0,0,.49,0l.94-1.86a.51.51,0,0,0,0-.48l-.94-1.86A.28.28,0,0,0,147.46,176.33ZM141,185a.28.28,0,0,0,.49,0l.94-1.86a.51.51,0,0,0,0-.48l-.94-1.86a.28.28,0,0,0-.49,0l-.95,1.86a.57.57,0,0,0,0,.48Zm-5.08,11.15-1-1.85a.28.28,0,0,0-.49,0l-.94,1.85a.53.53,0,0,0,0,.49l.94,1.86a.28.28,0,0,0,.49,0l1-1.86A.6.6,0,0,0,135.87,196.18ZM161,180.53l.94-1.86a.51.51,0,0,0,0-.48l-.94-1.86a.28.28,0,0,0-.5,0l-.94,1.86a.51.51,0,0,0,0,.48l.94,1.86A.28.28,0,0,0,161,180.53Zm-21.71,9,.94-1.86a.51.51,0,0,0,0-.48l-.94-1.86a.28.28,0,0,0-.5,0l-.94,1.86a.51.51,0,0,0,0,.48l.94,1.86A.28.28,0,0,0,139.27,189.53ZM136.6,194a.28.28,0,0,0,.5,0l.94-1.86a.53.53,0,0,0,0-.49l-.94-1.85a.28.28,0,0,0-.5,0l-.94,1.85a.53.53,0,0,0,0,.49Zm6.52-17.7-1,1.86a.57.57,0,0,0,0,.48l1,1.86a.28.28,0,0,0,.49,0l.94-1.86a.51.51,0,0,0,0-.48l-.94-1.86A.28.28,0,0,0,143.12,176.33Zm21.71,0-1,1.86a.57.57,0,0,0,0,.48l1,1.86a.28.28,0,0,0,.49,0l.94-1.86a.51.51,0,0,0,0-.48l-.94-1.86A.28.28,0,0,0,164.83,176.33Zm-1.68-4.5a.28.28,0,0,0-.5,0l-.94,1.86a.57.57,0,0,0,0,.48l.94,1.86a.28.28,0,0,0,.5,0l.94-1.86a.51.51,0,0,0,0-.48ZM145.78,185l.94-1.86a.51.51,0,0,0,0-.48l-.94-1.86a.28.28,0,0,0-.49,0l-.94,1.86a.51.51,0,0,0,0,.48l.94,1.86A.28.28,0,0,0,145.78,185Zm32.56,4.5.95-1.86a.57.57,0,0,0,0-.48l-.95-1.86a.28.28,0,0,0-.49,0l-.94,1.86a.51.51,0,0,0,0,.48l.94,1.86A.28.28,0,0,0,178.34,189.53Zm-26.05,13.8a.28.28,0,0,0-.49,0l-.94,1.85a.53.53,0,0,0,0,.49l.94,1.86a.28.28,0,0,0,.49,0l.94-1.86a.53.53,0,0,0,0-.49ZM154,203a.28.28,0,0,0,.49,0l.95-1.86a.6.6,0,0,0,0-.49l-.95-1.85a.28.28,0,0,0-.49,0l-.94,1.85a.53.53,0,0,0,0,.49Zm-4.34,0a.28.28,0,0,0,.49,0l.94-1.86a.53.53,0,0,0,0-.49l-.94-1.85a.28.28,0,0,0-.49,0l-.94,1.85a.53.53,0,0,0,0,.49Zm-1.68.3a.28.28,0,0,0-.49,0l-.94,1.85a.53.53,0,0,0,0,.49l.94,1.86a.28.28,0,0,0,.49,0l.94-1.86a.53.53,0,0,0,0-.49Zm8.68,0a.28.28,0,0,0-.49,0l-.94,1.85a.53.53,0,0,0,0,.49l.94,1.86a.28.28,0,0,0,.49,0l1-1.86a.6.6,0,0,0,0-.49Zm4.35,0a.28.28,0,0,0-.5,0l-.94,1.85a.53.53,0,0,0,0,.49l.94,1.86a.28.28,0,0,0,.5,0l.94-1.86a.53.53,0,0,0,0-.49Zm-14.26-2.65-.94-1.85a.28.28,0,0,0-.49,0l-.94,1.85a.53.53,0,0,0,0,.49l.94,1.86a.28.28,0,0,0,.49,0l.94-1.86A.53.53,0,0,0,146.72,200.68ZM162.65,203a.28.28,0,0,0,.5,0l.94-1.86a.53.53,0,0,0,0-.49l-.94-1.85a.28.28,0,0,0-.5,0l-.94,1.85a.6.6,0,0,0,0,.49Zm-4.34,0a.28.28,0,0,0,.5,0l.94-1.86a.6.6,0,0,0,0-.49l-.94-1.85a.28.28,0,0,0-.5,0l-.94,1.85a.53.53,0,0,0,0,.49Zm-15.19-4.5a.28.28,0,0,0,.49,0l.94-1.86a.53.53,0,0,0,0-.49l-.94-1.85a.28.28,0,0,0-.49,0l-1,1.85a.6.6,0,0,0,0,.49Zm3.4-37.85.94,1.85a.28.28,0,0,0,.49,0l.94-1.85a.53.53,0,0,0,0-.49l-.94-1.86a.28.28,0,0,0-.49,0l-.94,1.86A.53.53,0,0,0,146.52,160.68Zm-4.35,0,1,1.85a.28.28,0,0,0,.49,0l.94-1.85a.53.53,0,0,0,0-.49l-.94-1.86a.28.28,0,0,0-.49,0l-1,1.86A.6.6,0,0,0,142.17,160.68Zm3.61,2.15a.28.28,0,0,0-.49,0l-.94,1.86a.53.53,0,0,0,0,.49l.94,1.85a.28.28,0,0,0,.49,0l.94-1.85a.53.53,0,0,0,0-.49Zm3.85-4.8a.28.28,0,0,0,.49,0l.94-1.85a.53.53,0,0,0,0-.49l-.94-1.86a.28.28,0,0,0-.49,0l-.94,1.86a.53.53,0,0,0,0,.49Zm-8.19,0,.94-1.85a.58.58,0,0,0,.05-.29c-.67.38-1.32.78-2,1.21l.48.93A.28.28,0,0,0,141.44,158Zm.94,42.65-.94-1.85a.28.28,0,0,0-.49,0l-.95,1.85a.6.6,0,0,0,0,.49L141,203a.28.28,0,0,0,.49,0l.94-1.86A.53.53,0,0,0,142.38,200.68Zm-3.38,2.5.32.26,0-.11A.3.3,0,0,0,139,203.18Zm26.32.15a.28.28,0,0,0-.49,0l-1,1.85a.6.6,0,0,0,0,.49l1,1.86a.28.28,0,0,0,.49,0l.94-1.86a.53.53,0,0,0,0-.49ZM154,207.83l-.58,1.14c.57.06,1.14.1,1.72.13l-.65-1.27A.28.28,0,0,0,154,207.83ZM145.29,158a.28.28,0,0,0,.49,0l.94-1.85a.53.53,0,0,0,0-.49l-.75-1.48-1.11.46-.51,1a.53.53,0,0,0,0,.49Zm-1.68,45.3a.28.28,0,0,0-.49,0l-1,1.85s0,.08,0,.12q1,.58,2,1.08l.36-.71a.53.53,0,0,0,0-.49Zm4.34-49.8,0,0-.41.14A.27.27,0,0,0,148,153.53Zm1.68,54.3-.22.43,1.06.25-.35-.68A.28.28,0,0,0,149.63,207.83Zm8.68,0-.64,1.27c.58,0,1.15-.07,1.71-.13l-.57-1.14A.28.28,0,0,0,158.31,207.83Zm11.35-4.5a.28.28,0,0,0-.49,0l-.94,1.85a.53.53,0,0,0,0,.49l.36.71c.7-.33,1.37-.69,2-1.08a.53.53,0,0,0,0-.12Zm-7,4.5-.34.68,1.06-.25-.22-.43A.28.28,0,0,0,162.65,207.83Zm-10.36-54.3.55-1.07c-.5.06-1,.14-1.47.22l.43.85A.28.28,0,0,0,152.29,153.53Zm16.14,47.15-.94-1.85a.28.28,0,0,0-.49,0l-.94,1.85a.53.53,0,0,0,0,.49L167,203a.28.28,0,0,0,.49,0l.94-1.86A.53.53,0,0,0,168.43,200.68Zm-16.14-42.35a.28.28,0,0,0-.49,0l-.94,1.86a.53.53,0,0,0,0,.49l.94,1.85a.28.28,0,0,0,.49,0l.94-1.85a.53.53,0,0,0,0-.49Zm19.05-.3a.28.28,0,0,0,.49,0l.47-.93c-.63-.43-1.28-.83-2-1.21a.49.49,0,0,0,.05.29Zm-14.71-4.5.65-1.28-.89,0-.9,0,.65,1.28A.28.28,0,0,0,156.63,153.53Zm16.88,49.8-.06.11.33-.26A.29.29,0,0,0,173.51,203.33Zm-4.34-4.8a.28.28,0,0,0,.49,0l.94-1.86a.53.53,0,0,0,0-.49l-.94-1.85a.28.28,0,0,0-.49,0l-.94,1.85a.53.53,0,0,0,0,.49Zm2.66.3a.28.28,0,0,0-.49,0l-.94,1.85a.53.53,0,0,0,0,.49l.94,1.86a.28.28,0,0,0,.49,0l.94-1.86a.53.53,0,0,0,0-.49ZM161,153.53l.43-.85c-.49-.08-1-.16-1.47-.22l.54,1.07A.28.28,0,0,0,161,153.53Zm4.24.11-.41-.14,0,0A.27.27,0,0,0,165.22,153.64ZM167,158a.28.28,0,0,0,.49,0l.94-1.85a.53.53,0,0,0,0-.49l-.51-1-1.11-.46-.75,1.48a.53.53,0,0,0,0,.49Zm7.94,38.15-.94-1.85a.28.28,0,0,0-.49,0l-.94,1.85a.53.53,0,0,0,0,.49l.94,1.86a.28.28,0,0,0,.49,0l.94-1.86A.53.53,0,0,0,174.94,196.18Zm-31.82-6.65a.28.28,0,0,0,.49,0l.94-1.86a.51.51,0,0,0,0-.48l-.94-1.86a.28.28,0,0,0-.49,0l-1,1.86a.57.57,0,0,0,0,.48Zm2.66,4.5.94-1.86a.53.53,0,0,0,0-.49l-.94-1.85a.28.28,0,0,0-.49,0l-.94,1.85a.53.53,0,0,0,0,.49l.94,1.86A.28.28,0,0,0,145.78,194Zm-6.51,4.5.94-1.86a.53.53,0,0,0,0-.49l-.94-1.85a.28.28,0,0,0-.5,0l-.94,1.85a.53.53,0,0,0,0,.49l.94,1.86A.28.28,0,0,0,139.27,198.53Zm8.19,0a.28.28,0,0,0,.49,0l.94-1.86a.53.53,0,0,0,0-.49l-.94-1.85a.28.28,0,0,0-.49,0l-.94,1.85a.53.53,0,0,0,0,.49Zm10.85-4.5a.28.28,0,0,0,.5,0l.94-1.86a.6.6,0,0,0,0-.49l-.94-1.85a.28.28,0,0,0-.5,0l-.94,1.85a.53.53,0,0,0,0,.49Zm-8.68,0a.28.28,0,0,0,.49,0l.94-1.86a.53.53,0,0,0,0-.49l-.94-1.85a.28.28,0,0,0-.49,0l-.94,1.85a.53.53,0,0,0,0,.49Zm4.34,0a.28.28,0,0,0,.49,0l.95-1.86a.6.6,0,0,0,0-.49l-.95-1.85a.28.28,0,0,0-.49,0l-.94,1.85a.53.53,0,0,0,0,.49Zm2.66,4.5,1-1.86a.6.6,0,0,0,0-.49l-1-1.85a.28.28,0,0,0-.49,0l-.94,1.85a.53.53,0,0,0,0,.49l.94,1.86A.28.28,0,0,0,156.63,198.53Zm-4.34,0,.94-1.86a.53.53,0,0,0,0-.49l-.94-1.85a.28.28,0,0,0-.49,0l-.94,1.85a.53.53,0,0,0,0,.49l.94,1.86A.28.28,0,0,0,152.29,198.53ZM141,194a.28.28,0,0,0,.49,0l.94-1.86a.53.53,0,0,0,0-.49l-.94-1.85a.28.28,0,0,0-.49,0l-.95,1.85a.6.6,0,0,0,0,.49Zm4.83-22.2a.28.28,0,0,0-.49,0l-.94,1.86a.51.51,0,0,0,0,.48l.94,1.86a.28.28,0,0,0,.49,0l.94-1.86a.51.51,0,0,0,0-.48Zm-2.66-4.5-1,1.86a.57.57,0,0,0,0,.48l1,1.86a.28.28,0,0,0,.49,0l.94-1.86a.51.51,0,0,0,0-.48l-.94-1.86A.28.28,0,0,0,143.12,167.33Zm4.34,0-.94,1.86a.51.51,0,0,0,0,.48l.94,1.86a.28.28,0,0,0,.49,0l.94-1.86a.51.51,0,0,0,0-.48l-.94-1.86A.28.28,0,0,0,147.46,167.33Zm-6-4.5a.28.28,0,0,0-.49,0l-.95,1.86a.6.6,0,0,0,0,.49L141,167a.28.28,0,0,0,.49,0l.94-1.85a.53.53,0,0,0,0-.49Zm-4.34,36a.28.28,0,0,0-.5,0l-.76,1.51c.56.59,1.15,1.15,1.76,1.69l.44-.86a.53.53,0,0,0,0-.49Zm-2.18-36.3.6-1.18c-.36.39-.72.79-1.06,1.21A.27.27,0,0,0,134.92,162.53Zm-5.57,20.16-.94-1.86a.27.27,0,0,0-.47,0,29.66,29.66,0,0,0,.35,4.34.34.34,0,0,0,.12-.12l.94-1.86A.51.51,0,0,0,129.35,182.69Zm3.4-15.66.95-1.85a.6.6,0,0,0,0-.49l-.35-.69c-.53.73-1,1.48-1.48,2.26l.39.77A.28.28,0,0,0,132.75,167Zm40.76-4.5a.28.28,0,0,0,.49,0l.94-1.85a.53.53,0,0,0,0-.49l-.92-1.83-.21-.16a.25.25,0,0,0-.3.13l-.94,1.86a.53.53,0,0,0,0,.49Zm-6,.3a.28.28,0,0,0-.49,0l-.94,1.86a.53.53,0,0,0,0,.49L167,167a.28.28,0,0,0,.49,0l.94-1.85a.53.53,0,0,0,0-.49Zm4.34,0a.28.28,0,0,0-.49,0l-.94,1.86a.53.53,0,0,0,0,.49l.94,1.85a.28.28,0,0,0,.49,0l.94-1.85a.53.53,0,0,0,0-.49Zm-3.6-2.15.94,1.85a.28.28,0,0,0,.49,0l.94-1.85a.53.53,0,0,0,0-.49l-.94-1.86a.28.28,0,0,0-.49,0l-.94,1.86A.53.53,0,0,0,168.23,160.68ZM162.65,158a.28.28,0,0,0,.5,0l.94-1.85a.53.53,0,0,0,0-.49l-.94-1.86a.28.28,0,0,0-.5,0l-.94,1.86a.6.6,0,0,0,0,.49ZM161,198.53l.94-1.86a.53.53,0,0,0,0-.49l-.94-1.85a.28.28,0,0,0-.5,0l-.94,1.85a.53.53,0,0,0,0,.49l.94,1.86A.28.28,0,0,0,161,198.53Zm-4.35-40.2a.28.28,0,0,0-.49,0l-.94,1.86a.53.53,0,0,0,0,.49l.94,1.85a.28.28,0,0,0,.49,0l1-1.85a.6.6,0,0,0,0-.49Zm1.68-.3a.28.28,0,0,0,.5,0l.94-1.85a.6.6,0,0,0,0-.49l-.94-1.86a.28.28,0,0,0-.5,0l-.94,1.86a.53.53,0,0,0,0,.49Zm2.67.3a.28.28,0,0,0-.5,0l-.94,1.86a.53.53,0,0,0,0,.49l.94,1.85a.28.28,0,0,0,.5,0l.94-1.85a.53.53,0,0,0,0-.49Zm3.85,0-1,1.86a.6.6,0,0,0,0,.49l1,1.85a.28.28,0,0,0,.49,0l.94-1.85a.53.53,0,0,0,0-.49l-.94-1.86A.28.28,0,0,0,164.83,158.33Zm4.34,31.2a.28.28,0,0,0,.49,0l.94-1.86a.51.51,0,0,0,0-.48l-.94-1.86a.28.28,0,0,0-.49,0l-.94,1.86a.51.51,0,0,0,0,.48Zm-1.68,4.5.94-1.86a.53.53,0,0,0,0-.49l-.94-1.85a.28.28,0,0,0-.49,0l-.94,1.85a.53.53,0,0,0,0,.49L167,194A.28.28,0,0,0,167.49,194ZM154,158a.28.28,0,0,0,.49,0l.95-1.85a.6.6,0,0,0,0-.49l-.95-1.86a.28.28,0,0,0-.49,0l-.94,1.86a.53.53,0,0,0,0,.49Zm8.68,36a.28.28,0,0,0,.5,0l.94-1.86a.53.53,0,0,0,0-.49l-.94-1.85a.28.28,0,0,0-.5,0l-.94,1.85a.6.6,0,0,0,0,.49Zm2.67,4.5.94-1.86a.53.53,0,0,0,0-.49l-.94-1.85a.28.28,0,0,0-.49,0l-1,1.85a.6.6,0,0,0,0,.49l1,1.86A.28.28,0,0,0,165.32,198.53Zm19-17.7-.94,1.86a.51.51,0,0,0,0,.48l.94,1.86a.46.46,0,0,0,.12.12,27.13,27.13,0,0,0,.35-4.34A.27.27,0,0,0,184.36,180.83ZM171.83,194l.94-1.86a.53.53,0,0,0,0-.49l-.94-1.85a.28.28,0,0,0-.49,0l-.94,1.85a.53.53,0,0,0,0,.49l.94,1.86A.28.28,0,0,0,171.83,194Zm-22.2-31.2-.94,1.86a.53.53,0,0,0,0,.49l.94,1.85a.28.28,0,0,0,.49,0l.94-1.85a.53.53,0,0,0,0-.49l-.94-1.86A.28.28,0,0,0,149.63,162.83Z"/><g class="cls-4"><circle class="cls-16" cx="197.2" cy="144.75" r="49.41"/></g><circle class="cls-6" cx="199.17" cy="142.71" r="44.01" transform="translate(-8.9 272.11) rotate(-67.5)"/><circle class="cls-17" cx="199.17" cy="142.71" r="39.12"/><path class="cls-18" d="M195.08,129.38a.28.28,0,0,0-.5,0l-.94,1.86a.51.51,0,0,0,0,.48l.94,1.86a.28.28,0,0,0,.5,0l.94-1.86a.51.51,0,0,0,0-.48Zm1.68-4.5-.95,1.86a.57.57,0,0,0,0,.48l.95,1.86a.28.28,0,0,0,.49,0l.94-1.86a.51.51,0,0,0,0-.48l-.94-1.86A.28.28,0,0,0,196.76,124.88Zm-8.69,0-.94,1.86a.51.51,0,0,0,0,.48l.94,1.86a.28.28,0,0,0,.49,0l.95-1.86a.57.57,0,0,0,0-.48l-.95-1.86A.28.28,0,0,0,188.07,124.88Zm2.66,4.5a.28.28,0,0,0-.49,0l-.94,1.86a.51.51,0,0,0,0,.48l.94,1.86a.28.28,0,0,0,.49,0l1-1.86a.57.57,0,0,0,0-.48Zm1.68-4.5-.94,1.86a.51.51,0,0,0,0,.48l.94,1.86a.28.28,0,0,0,.5,0l.94-1.86a.51.51,0,0,0,0-.48l-.94-1.86A.28.28,0,0,0,192.41,124.88Zm11.35,4.5a.28.28,0,0,0-.49,0l-.94,1.86a.51.51,0,0,0,0,.48l.94,1.86a.28.28,0,0,0,.49,0l.94-1.86a.51.51,0,0,0,0-.48Zm-2.66-4.5-.94,1.86a.51.51,0,0,0,0,.48l.94,1.86a.28.28,0,0,0,.49,0l.94-1.86a.51.51,0,0,0,0-.48l-.94-1.86A.28.28,0,0,0,201.1,124.88Zm-30.4,9-.94,1.85a.53.53,0,0,0,0,.49l.94,1.86a.28.28,0,0,0,.5,0l.94-1.86a.53.53,0,0,0,0-.49l-.94-1.85A.28.28,0,0,0,170.7,133.88Zm2.67-4.5a.28.28,0,0,0-.5,0l-.94,1.86a.51.51,0,0,0,0,.48l.94,1.86a.28.28,0,0,0,.5,0l.94-1.86a.51.51,0,0,0,0-.48Zm1.68-4.5-1,1.86a.57.57,0,0,0,0,.48l1,1.86a.28.28,0,0,0,.49,0l.94-1.86a.51.51,0,0,0,0-.48l-.94-1.86A.28.28,0,0,0,175.05,124.88Zm2.17,4.5-.95,1.86a.57.57,0,0,0,0,.48l.95,1.86a.28.28,0,0,0,.49,0l.94-1.86a.51.51,0,0,0,0-.48l-.94-1.86A.28.28,0,0,0,177.22,129.38Zm28.22-4.5-.94,1.86a.51.51,0,0,0,0,.48l.94,1.86a.28.28,0,0,0,.49,0l.94-1.86a.51.51,0,0,0,0-.48l-.94-1.86A.28.28,0,0,0,205.44,124.88Zm-19.05,4.5a.28.28,0,0,0-.49,0l-.94,1.86a.51.51,0,0,0,0,.48l.94,1.86a.28.28,0,0,0,.49,0l.94-1.86a.51.51,0,0,0,0-.48Zm-2.66-4.5-.94,1.86a.51.51,0,0,0,0,.48l.94,1.86a.28.28,0,0,0,.49,0l.94-1.86a.51.51,0,0,0,0-.48l-.94-1.86A.28.28,0,0,0,183.73,124.88Zm-3.85,9a.28.28,0,0,0-.49,0l-.94,1.85a.53.53,0,0,0,0,.49l.94,1.86a.28.28,0,0,0,.49,0l.94-1.86a.53.53,0,0,0,0-.49Zm1.68-4.5-.94,1.86a.51.51,0,0,0,0,.48l.94,1.86a.28.28,0,0,0,.49,0l.94-1.86a.51.51,0,0,0,0-.48l-.94-1.86A.28.28,0,0,0,181.56,129.38Zm17.86,0a.28.28,0,0,0-.49,0l-1,1.86a.57.57,0,0,0,0,.48l1,1.86a.28.28,0,0,0,.49,0l.94-1.86a.51.51,0,0,0,0-.48Zm32.56,4.5a.28.28,0,0,0-.49,0l-.94,1.85a.53.53,0,0,0,0,.49l.94,1.86a.28.28,0,0,0,.49,0l.94-1.86a.53.53,0,0,0,0-.49Zm2.17,8.7.95-1.86a.6.6,0,0,0,0-.49l-.95-1.85a.28.28,0,0,0-.49,0l-.94,1.85a.53.53,0,0,0,0,.49l.94,1.86A.28.28,0,0,0,234.15,142.58Zm-4.34-13.2a.28.28,0,0,0-.49,0l-.94,1.86a.51.51,0,0,0,0,.48l.94,1.86a.28.28,0,0,0,.49,0l.94-1.86a.51.51,0,0,0,0-.48Zm-2.17,4.5a.28.28,0,0,0-.49,0l-.94,1.85a.53.53,0,0,0,0,.49l.94,1.86a.28.28,0,0,0,.49,0l.94-1.86a.53.53,0,0,0,0-.49Zm9.42,6.84.94,1.86a.29.29,0,0,0,.29.14,39.63,39.63,0,0,0-.25-4.38s0,0,0,0l-.94,1.85A.53.53,0,0,0,237.06,140.72Zm-.73,6.36.94-1.86a.6.6,0,0,0,0-.49l-.94-1.85a.28.28,0,0,0-.5,0l-.94,1.85a.53.53,0,0,0,0,.49l.94,1.86A.28.28,0,0,0,236.33,147.08Zm-10.86-17.7a.28.28,0,0,0-.49,0l-.94,1.86a.51.51,0,0,0,0,.48l.94,1.86a.28.28,0,0,0,.49,0l.94-1.86a.51.51,0,0,0,0-.48Zm9.42,6.35a.53.53,0,0,0,0,.49l.94,1.86a.28.28,0,0,0,.5,0l.94-1.86a.6.6,0,0,0,0-.49l-.94-1.85a.28.28,0,0,0-.5,0Zm-22.45-6.35a.28.28,0,0,0-.49,0l-.94,1.86a.51.51,0,0,0,0,.48l.94,1.86a.28.28,0,0,0,.49,0l.95-1.86a.57.57,0,0,0,0-.48Zm10.37-4.5-.94,1.86a.51.51,0,0,0,0,.48l.94,1.86a.28.28,0,0,0,.49,0l.94-1.86a.51.51,0,0,0,0-.48l-.94-1.86A.28.28,0,0,0,222.81,124.88Zm-13,0-.94,1.86a.51.51,0,0,0,0,.48l.94,1.86a.28.28,0,0,0,.49,0l.95-1.86a.57.57,0,0,0,0-.48l-.95-1.86A.28.28,0,0,0,209.78,124.88Zm4.84,0a.28.28,0,0,0-.5,0l-.94,1.86a.51.51,0,0,0,0,.48l.94,1.86a.28.28,0,0,0,.5,0l.94-1.86a.51.51,0,0,0,0-.48Zm-6.52,4.5a.28.28,0,0,0-.49,0l-.94,1.86a.51.51,0,0,0,0,.48l.94,1.86a.28.28,0,0,0,.49,0l.94-1.86a.51.51,0,0,0,0-.48Zm13,0a.28.28,0,0,0-.49,0l-.95,1.86a.57.57,0,0,0,0,.48l.95,1.86a.28.28,0,0,0,.49,0l.94-1.86a.51.51,0,0,0,0-.48Zm-2.17,4.5a.28.28,0,0,0-.49,0l-.95,1.85a.6.6,0,0,0,0,.49l.95,1.86a.28.28,0,0,0,.49,0l.94-1.86a.53.53,0,0,0,0-.49Zm-2.67-4.5-.94,1.86a.51.51,0,0,0,0,.48l.94,1.86a.28.28,0,0,0,.5,0l.94-1.86a.51.51,0,0,0,0-.48l-.94-1.86A.28.28,0,0,0,216.29,129.38Zm-50.67,28.85-.94-1.85a.28.28,0,0,0-.49,0l-.94,1.85q.56,1.28,1.2,2.49a.27.27,0,0,0,.23-.14l.94-1.86A.53.53,0,0,0,165.62,158.23Zm39.82-2.15a.28.28,0,0,0,.49,0l.94-1.86a.53.53,0,0,0,0-.49l-.94-1.85a.28.28,0,0,0-.49,0l-.94,1.85a.53.53,0,0,0,0,.49Zm-1.68,4.5.94-1.86a.53.53,0,0,0,0-.49l-.94-1.85a.28.28,0,0,0-.49,0l-.94,1.85a.53.53,0,0,0,0,.49l.94,1.86A.28.28,0,0,0,203.76,160.58Zm-8.68,0,.94-1.86a.53.53,0,0,0,0-.49l-.94-1.85a.28.28,0,0,0-.5,0l-.94,1.85a.53.53,0,0,0,0,.49l.94,1.86A.28.28,0,0,0,195.08,160.58Zm14.7-4.5a.28.28,0,0,0,.49,0l.95-1.86a.6.6,0,0,0,0-.49l-.95-1.85a.28.28,0,0,0-.49,0l-.94,1.85a.53.53,0,0,0,0,.49Zm-1.68,4.5.94-1.86a.53.53,0,0,0,0-.49l-.94-1.85a.28.28,0,0,0-.49,0l-.94,1.85a.53.53,0,0,0,0,.49l.94,1.86A.28.28,0,0,0,208.1,160.58Zm-11.34-4.5a.28.28,0,0,0,.49,0l.94-1.86a.53.53,0,0,0,0-.49l-.94-1.85a.28.28,0,0,0-.49,0l-.95,1.85a.6.6,0,0,0,0,.49Zm4.34,0a.28.28,0,0,0,.49,0l.94-1.86a.53.53,0,0,0,0-.49l-.94-1.85a.28.28,0,0,0-.49,0l-.94,1.85a.53.53,0,0,0,0,.49Zm-1.68-4.5.94-1.86a.53.53,0,0,0,0-.49l-.94-1.85a.28.28,0,0,0-.49,0l-1,1.85a.6.6,0,0,0,0,.49l1,1.86A.28.28,0,0,0,199.42,151.58Zm13,9,.95-1.86a.6.6,0,0,0,0-.49l-.95-1.85a.28.28,0,0,0-.49,0l-.94,1.85a.53.53,0,0,0,0,.49l.94,1.86A.28.28,0,0,0,212.44,160.58Zm13,0,.94-1.86a.53.53,0,0,0,0-.49l-.94-1.85a.28.28,0,0,0-.49,0l-.94,1.85a.53.53,0,0,0,0,.49l.94,1.86A.28.28,0,0,0,225.47,160.58Zm2.17-4.5.94-1.86a.53.53,0,0,0,0-.49l-.94-1.85a.28.28,0,0,0-.49,0l-.94,1.85a.53.53,0,0,0,0,.49l.94,1.86A.28.28,0,0,0,227.64,156.08Zm-4.34,0,.94-1.86a.53.53,0,0,0,0-.49l-.94-1.85a.28.28,0,0,0-.49,0l-.94,1.85a.53.53,0,0,0,0,.49l.94,1.86A.28.28,0,0,0,223.3,156.08Zm-4.34,0,.94-1.86a.53.53,0,0,0,0-.49l-.94-1.85a.28.28,0,0,0-.49,0l-.95,1.85a.6.6,0,0,0,0,.49l.95,1.86A.28.28,0,0,0,219,156.08Zm-2.67-4.5a.28.28,0,0,0,.5,0l.94-1.86a.53.53,0,0,0,0-.49l-.94-1.85a.28.28,0,0,0-.5,0l-.94,1.85a.53.53,0,0,0,0,.49Zm-1.67,4.5.94-1.86a.53.53,0,0,0,0-.49l-.94-1.85a.28.28,0,0,0-.5,0l-.94,1.85a.53.53,0,0,0,0,.49l.94,1.86A.28.28,0,0,0,214.62,156.08Zm6-4.5a.28.28,0,0,0,.49,0l.94-1.86a.53.53,0,0,0,0-.49l-.94-1.85a.28.28,0,0,0-.49,0l-.95,1.85a.6.6,0,0,0,0,.49Zm-52.11-22.2-.94,1.86a.51.51,0,0,0,0,.48l.94,1.86a.28.28,0,0,0,.49,0l.95-1.86a.57.57,0,0,0,0-.48l-.95-1.86A.28.28,0,0,0,168.53,129.38Zm6.52,26.7a.28.28,0,0,0,.49,0l.94-1.86a.53.53,0,0,0,0-.49l-.94-1.85a.28.28,0,0,0-.49,0l-1,1.85a.6.6,0,0,0,0,.49Zm-6.52,4.5a.28.28,0,0,0,.49,0l.95-1.86a.6.6,0,0,0,0-.49l-.95-1.85a.28.28,0,0,0-.49,0l-.94,1.85a.53.53,0,0,0,0,.49Zm68.53-11.35a.53.53,0,0,0,0,.49l.44.86c.21-1.05.38-2.12.5-3.2h0Zm-64.19,11.35a.28.28,0,0,0,.5,0l.94-1.86a.53.53,0,0,0,0-.49l-.94-1.85a.28.28,0,0,0-.5,0l-.94,1.85a.53.53,0,0,0,0,.49Zm-1.67-4.5.94-1.86a.53.53,0,0,0,0-.49l-.94-1.85a.28.28,0,0,0-.5,0l-.94,1.85a.53.53,0,0,0,0,.49l.94,1.86A.28.28,0,0,0,171.2,156.08Zm-7.75-28.86a.51.51,0,0,0,0-.45c-.34.76-.66,1.53-1,2.31h0Zm2,0,.94,1.86a.28.28,0,0,0,.49,0l1-1.86a.57.57,0,0,0,0-.48l-1-1.86a.28.28,0,0,0-.49,0l-.94,1.86A.51.51,0,0,0,165.42,127.22Zm-2.17,4.5.94,1.86a.28.28,0,0,0,.49,0l.94-1.86a.51.51,0,0,0,0-.48l-.94-1.86a.28.28,0,0,0-.49,0l-.94,1.86A.51.51,0,0,0,163.25,131.72Zm18.31,19.86a.28.28,0,0,0,.49,0l.94-1.86a.53.53,0,0,0,0-.49l-.94-1.85a.28.28,0,0,0-.49,0l-.94,1.85a.53.53,0,0,0,0,.49Zm4.34,9a.28.28,0,0,0,.49,0l.94-1.86a.53.53,0,0,0,0-.49l-.94-1.85a.28.28,0,0,0-.49,0l-.94,1.85a.53.53,0,0,0,0,.49Zm2.17-4.5a.28.28,0,0,0,.49,0l.95-1.86a.6.6,0,0,0,0-.49l-.95-1.85a.28.28,0,0,0-.49,0l-.94,1.85a.53.53,0,0,0,0,.49Zm2.66,4.5,1-1.86a.6.6,0,0,0,0-.49l-1-1.85a.28.28,0,0,0-.49,0l-.94,1.85a.53.53,0,0,0,0,.49l.94,1.86A.28.28,0,0,0,190.73,160.58Zm-10.85-4.5.94-1.86a.53.53,0,0,0,0-.49l-.94-1.85a.28.28,0,0,0-.49,0l-.94,1.85a.53.53,0,0,0,0,.49l.94,1.86A.28.28,0,0,0,179.88,156.08Zm4.34,0,.94-1.86a.53.53,0,0,0,0-.49l-.94-1.85a.28.28,0,0,0-.49,0l-.94,1.85a.53.53,0,0,0,0,.49l.94,1.86A.28.28,0,0,0,184.22,156.08Zm-7-4.5a.28.28,0,0,0,.49,0l.94-1.86a.53.53,0,0,0,0-.49l-.94-1.85a.28.28,0,0,0-.49,0l-.95,1.85a.6.6,0,0,0,0,.49Zm15.19,4.5a.28.28,0,0,0,.5,0l.94-1.86a.53.53,0,0,0,0-.49l-.94-1.85a.28.28,0,0,0-.5,0l-.94,1.85a.53.53,0,0,0,0,.49Zm-18.1-15.85-.94-1.85a.28.28,0,0,0-.5,0l-.94,1.85a.53.53,0,0,0,0,.49l.94,1.86a.28.28,0,0,0,.5,0l.94-1.86A.53.53,0,0,0,174.31,140.23Zm.74-6.35-1,1.85a.6.6,0,0,0,0,.49l1,1.86a.28.28,0,0,0,.49,0l.94-1.86a.53.53,0,0,0,0-.49l-.94-1.85A.28.28,0,0,0,175.05,133.88Zm-2.18,17.7a.28.28,0,0,0,.5,0l.94-1.86a.53.53,0,0,0,0-.49l-.94-1.85a.28.28,0,0,0-.5,0l-.94,1.85a.53.53,0,0,0,0,.49Zm2.18-4.5a.28.28,0,0,0,.49,0l.94-1.86a.53.53,0,0,0,0-.49l-.94-1.85a.28.28,0,0,0-.49,0l-1,1.85a.6.6,0,0,0,0,.49Zm54.27,4.5a.28.28,0,0,0,.49,0l.94-1.86a.53.53,0,0,0,0-.49l-.94-1.85a.28.28,0,0,0-.49,0l-.94,1.85a.53.53,0,0,0,0,.49Zm-58.12-4.5.94-1.86a.53.53,0,0,0,0-.49l-.94-1.85a.28.28,0,0,0-.5,0l-.94,1.85a.53.53,0,0,0,0,.49l.94,1.86A.28.28,0,0,0,171.2,147.08Zm-4.84,9a.28.28,0,0,0,.49,0l1-1.86a.6.6,0,0,0,0-.49l-1-1.85a.28.28,0,0,0-.49,0l-.94,1.85a.53.53,0,0,0,0,.49Zm2.17-4.5a.28.28,0,0,0,.49,0l.95-1.86a.6.6,0,0,0,0-.49l-.95-1.85a.28.28,0,0,0-.49,0l-.94,1.85a.53.53,0,0,0,0,.49Zm-4.34,0a.28.28,0,0,0,.49,0l.94-1.86a.53.53,0,0,0,0-.49l-.94-1.85a.28.28,0,0,0-.49,0l-.94,1.85a.53.53,0,0,0,0,.49Zm13-13.2-.95,1.85a.6.6,0,0,0,0,.49l.95,1.86a.28.28,0,0,0,.49,0l.94-1.86a.53.53,0,0,0,0-.49l-.94-1.85A.28.28,0,0,0,177.22,138.38Zm2.66,8.7.94-1.86a.53.53,0,0,0,0-.49l-.94-1.85a.28.28,0,0,0-.49,0l-.94,1.85a.53.53,0,0,0,0,.49l.94,1.86A.28.28,0,0,0,179.88,147.08Zm10.85-4.5,1-1.86a.6.6,0,0,0,0-.49l-1-1.85a.28.28,0,0,0-.49,0l-.94,1.85a.53.53,0,0,0,0,.49l.94,1.86A.28.28,0,0,0,190.73,142.58Zm-2.66-8.7-.94,1.85a.53.53,0,0,0,0,.49l.94,1.86a.28.28,0,0,0,.49,0l.95-1.86a.6.6,0,0,0,0-.49l-.95-1.85A.28.28,0,0,0,188.07,133.88Zm4.34,0-.94,1.85a.53.53,0,0,0,0,.49l.94,1.86a.28.28,0,0,0,.5,0l.94-1.86a.53.53,0,0,0,0-.49l-.94-1.85A.28.28,0,0,0,192.41,133.88Zm-10.85,4.5-.94,1.85a.53.53,0,0,0,0,.49l.94,1.86a.28.28,0,0,0,.49,0l.94-1.86a.53.53,0,0,0,0-.49l-.94-1.85A.28.28,0,0,0,181.56,138.38Zm15.2-4.5-.95,1.85a.6.6,0,0,0,0,.49l.95,1.86a.28.28,0,0,0,.49,0l.94-1.86a.53.53,0,0,0,0-.49l-.94-1.85A.28.28,0,0,0,196.76,133.88Zm-1.68,8.7.94-1.86a.53.53,0,0,0,0-.49l-.94-1.85a.28.28,0,0,0-.5,0l-.94,1.85a.53.53,0,0,0,0,.49l.94,1.86A.28.28,0,0,0,195.08,142.58Zm-7.75-2.35-.94-1.85a.28.28,0,0,0-.49,0l-.94,1.85a.53.53,0,0,0,0,.49l.94,1.86a.28.28,0,0,0,.49,0l.94-1.86A.53.53,0,0,0,187.33,140.23Zm44.16,20.65-.94,1.85a.53.53,0,0,0,0,.49l.85,1.67c.51-.74,1-1.5,1.46-2.29l-.88-1.72A.28.28,0,0,0,231.49,160.88Zm-68-7.15-.94-1.85a.28.28,0,0,0-.49,0l-.58,1.15c.29,1.06.61,2.11,1,3.14a.34.34,0,0,0,.08-.09l.94-1.86A.53.53,0,0,0,163.45,153.73Zm70.21,2.65-.94,1.85a.53.53,0,0,0,0,.49l.94,1.86a.28.28,0,0,0,.24.14c.42-.81.82-1.64,1.19-2.49l-.94-1.85A.28.28,0,0,0,233.66,156.38Zm2.17-4.5-.94,1.85a.53.53,0,0,0,0,.49l.94,1.86s.06.06.09.09c.37-1,.7-2.08,1-3.14l-.58-1.15A.28.28,0,0,0,235.83,151.88Zm-12.53,18a.28.28,0,0,0-.49,0l-.94,1.85a.53.53,0,0,0,0,.49l.87,1.72c.35-.26.7-.54,1-.81l.46-.91a.53.53,0,0,0,0-.49Zm-54.77-31.5-.94,1.85a.53.53,0,0,0,0,.49l.94,1.86a.28.28,0,0,0,.49,0l.95-1.86a.6.6,0,0,0,0-.49l-.95-1.85A.28.28,0,0,0,168.53,138.38Zm58.62-18.3a.28.28,0,0,0,.49,0l.94-1.86a.51.51,0,0,0,0-.48l-.9-1.78-.19-.21a.28.28,0,0,0-.34.13l-.94,1.86a.51.51,0,0,0,0,.48Zm-51.61,49.8a.28.28,0,0,0-.49,0l-1,1.85a.6.6,0,0,0,0,.49l.46.91c.35.27.69.55,1,.81l.88-1.72a.53.53,0,0,0,0-.49Zm-8.69-9a.28.28,0,0,0-.49,0l-.87,1.72c.46.79.94,1.55,1.46,2.29l.85-1.67a.6.6,0,0,0,0-.49ZM162,138.08a.28.28,0,0,0,.49,0l.94-1.86a.53.53,0,0,0,0-.49l-.94-1.85a.28.28,0,0,0-.49,0l-.94,1.85a.53.53,0,0,0,0,.49Zm4.34,4.8-.94,1.85a.53.53,0,0,0,0,.49l.94,1.86a.28.28,0,0,0,.49,0l1-1.86a.6.6,0,0,0,0-.49l-1-1.85A.28.28,0,0,0,166.36,142.88Zm-4.34,0-.94,1.85a.53.53,0,0,0,0,.49l.94,1.86a.28.28,0,0,0,.49,0l.94-1.86a.53.53,0,0,0,0-.49l-.94-1.85A.28.28,0,0,0,162,142.88Zm-.74-2.16a.53.53,0,0,0,0-.49l-.94-1.85,0,0a39.63,39.63,0,0,0-.25,4.38.28.28,0,0,0,.28-.14Zm-.94,6.66h0c.13,1.08.29,2.15.51,3.2l.43-.86a.53.53,0,0,0,0-.49Zm6-13.5-.94,1.85a.53.53,0,0,0,0,.49l.94,1.86a.28.28,0,0,0,.49,0l1-1.86a.6.6,0,0,0,0-.49l-1-1.85A.28.28,0,0,0,166.36,133.88Zm67.79,17.7.95-1.86a.6.6,0,0,0,0-.49l-.95-1.85a.28.28,0,0,0-.49,0l-.94,1.85a.53.53,0,0,0,0,.49l.94,1.86A.28.28,0,0,0,234.15,151.58Zm-70-13.2-.94,1.85a.53.53,0,0,0,0,.49l.94,1.86a.28.28,0,0,0,.49,0l.94-1.86a.53.53,0,0,0,0-.49l-.94-1.85A.28.28,0,0,0,164.19,138.38Zm50.43,8.7.94-1.86a.53.53,0,0,0,0-.49l-.94-1.85a.28.28,0,0,0-.5,0l-.94,1.85a.53.53,0,0,0,0,.49l.94,1.86A.28.28,0,0,0,214.62,147.08Zm1.67-8.7-.94,1.85a.53.53,0,0,0,0,.49l.94,1.86a.28.28,0,0,0,.5,0l.94-1.86a.53.53,0,0,0,0-.49l-.94-1.85A.28.28,0,0,0,216.29,138.38Zm2.67,8.7.94-1.86a.53.53,0,0,0,0-.49l-.94-1.85a.28.28,0,0,0-.49,0l-.95,1.85a.6.6,0,0,0,0,.49l.95,1.86A.28.28,0,0,0,219,147.08Zm-6.52,4.5.95-1.86a.6.6,0,0,0,0-.49l-.95-1.85a.28.28,0,0,0-.49,0l-.94,1.85a.53.53,0,0,0,0,.49l.94,1.86A.28.28,0,0,0,212.44,151.58Zm7.25-10.86.95,1.86a.28.28,0,0,0,.49,0l.94-1.86a.53.53,0,0,0,0-.49l-.94-1.85a.28.28,0,0,0-.49,0l-.95,1.85A.6.6,0,0,0,219.69,140.72Zm-14.25,6.36a.28.28,0,0,0,.49,0l.94-1.86a.53.53,0,0,0,0-.49l-.94-1.85a.28.28,0,0,0-.49,0l-.94,1.85a.53.53,0,0,0,0,.49Zm4.34,0a.28.28,0,0,0,.49,0l.95-1.86a.6.6,0,0,0,0-.49l-.95-1.85a.28.28,0,0,0-.49,0l-.94,1.85a.53.53,0,0,0,0,.49Zm-1.68,4.5.94-1.86a.53.53,0,0,0,0-.49l-.94-1.85a.28.28,0,0,0-.49,0l-.94,1.85a.53.53,0,0,0,0,.49l.94,1.86A.28.28,0,0,0,208.1,151.58Zm23.88-4.5.94-1.86a.53.53,0,0,0,0-.49l-.94-1.85a.28.28,0,0,0-.49,0l-.94,1.85a.53.53,0,0,0,0,.49l.94,1.86A.28.28,0,0,0,232,147.08Zm-3.6-6.36.94,1.86a.28.28,0,0,0,.49,0l.94-1.86a.53.53,0,0,0,0-.49l-.94-1.85a.28.28,0,0,0-.49,0l-.94,1.85A.53.53,0,0,0,228.38,140.72Zm-5.57-6.84-.94,1.85a.53.53,0,0,0,0,.49l.94,1.86a.28.28,0,0,0,.49,0l.94-1.86a.53.53,0,0,0,0-.49l-.94-1.85A.28.28,0,0,0,222.81,133.88Zm4.83,13.2.94-1.86a.53.53,0,0,0,0-.49l-.94-1.85a.28.28,0,0,0-.49,0l-.94,1.85a.53.53,0,0,0,0,.49l.94,1.86A.28.28,0,0,0,227.64,147.08Zm-23.88,4.5.94-1.86a.53.53,0,0,0,0-.49l-.94-1.85a.28.28,0,0,0-.49,0l-.94,1.85a.53.53,0,0,0,0,.49l.94,1.86A.28.28,0,0,0,203.76,151.58Zm21.71-9,.94-1.86a.53.53,0,0,0,0-.49l-.94-1.85a.28.28,0,0,0-.49,0l-.94,1.85a.53.53,0,0,0,0,.49l.94,1.86A.28.28,0,0,0,225.47,142.58Zm0,9,.94-1.86a.53.53,0,0,0,0-.49l-.94-1.85a.28.28,0,0,0-.49,0l-.94,1.85a.53.53,0,0,0,0,.49l.94,1.86A.28.28,0,0,0,225.47,151.58Zm-2.17-4.5.94-1.86a.53.53,0,0,0,0-.49l-.94-1.85a.28.28,0,0,0-.49,0l-.94,1.85a.53.53,0,0,0,0,.49l.94,1.86A.28.28,0,0,0,223.3,147.08Zm-10.86-4.5.95-1.86a.6.6,0,0,0,0-.49l-.95-1.85a.28.28,0,0,0-.49,0l-.94,1.85a.53.53,0,0,0,0,.49l.94,1.86A.28.28,0,0,0,212.44,142.58Zm-20,4.5a.28.28,0,0,0,.5,0l.94-1.86a.53.53,0,0,0,0-.49l-.94-1.85a.28.28,0,0,0-.5,0l-.94,1.85a.53.53,0,0,0,0,.49Zm7-4.5.94-1.86a.53.53,0,0,0,0-.49l-.94-1.85a.28.28,0,0,0-.49,0l-1,1.85a.6.6,0,0,0,0,.49l1,1.86A.28.28,0,0,0,199.42,142.58Zm-2.66,4.5a.28.28,0,0,0,.49,0l.94-1.86a.53.53,0,0,0,0-.49l-.94-1.85a.28.28,0,0,0-.49,0l-.95,1.85a.6.6,0,0,0,0,.49Zm-1.68,4.5.94-1.86a.53.53,0,0,0,0-.49l-.94-1.85a.28.28,0,0,0-.5,0l-.94,1.85a.53.53,0,0,0,0,.49l.94,1.86A.28.28,0,0,0,195.08,151.58Zm-9.18,0a.28.28,0,0,0,.49,0l.94-1.86a.53.53,0,0,0,0-.49l-.94-1.85a.28.28,0,0,0-.49,0l-.94,1.85a.53.53,0,0,0,0,.49Zm2.17-4.5a.28.28,0,0,0,.49,0l.95-1.86a.6.6,0,0,0,0-.49l-.95-1.85a.28.28,0,0,0-.49,0l-.94,1.85a.53.53,0,0,0,0,.49Zm2.66,4.5,1-1.86a.6.6,0,0,0,0-.49l-1-1.85a.28.28,0,0,0-.49,0l-.94,1.85a.53.53,0,0,0,0,.49l.94,1.86A.28.28,0,0,0,190.73,151.58Zm14.71-17.7-.94,1.85a.53.53,0,0,0,0,.49l.94,1.86a.28.28,0,0,0,.49,0l.94-1.86a.53.53,0,0,0,0-.49l-.94-1.85A.28.28,0,0,0,205.44,133.88Zm-21.71,0-.94,1.85a.53.53,0,0,0,0,.49l.94,1.86a.28.28,0,0,0,.49,0l.94-1.86a.53.53,0,0,0,0-.49l-.94-1.85A.28.28,0,0,0,183.73,133.88Zm17.37,0-.94,1.85a.53.53,0,0,0,0,.49l.94,1.86a.28.28,0,0,0,.49,0l.94-1.86a.53.53,0,0,0,0-.49l-.94-1.85A.28.28,0,0,0,201.1,133.88Zm0,13.2a.28.28,0,0,0,.49,0l.94-1.86a.53.53,0,0,0,0-.49l-.94-1.85a.28.28,0,0,0-.49,0l-.94,1.85a.53.53,0,0,0,0,.49Zm2.66-4.5.94-1.86a.53.53,0,0,0,0-.49l-.94-1.85a.28.28,0,0,0-.49,0l-.94,1.85a.53.53,0,0,0,0,.49l.94,1.86A.28.28,0,0,0,203.76,142.58Zm10.86-8.7a.28.28,0,0,0-.5,0l-.94,1.85a.53.53,0,0,0,0,.49l.94,1.86a.28.28,0,0,0,.5,0l.94-1.86a.53.53,0,0,0,0-.49Zm-6.52,8.7.94-1.86a.53.53,0,0,0,0-.49l-.94-1.85a.28.28,0,0,0-.49,0l-.94,1.85a.53.53,0,0,0,0,.49l.94,1.86A.28.28,0,0,0,208.1,142.58Zm1.68-8.7-.94,1.85a.53.53,0,0,0,0,.49l.94,1.86a.28.28,0,0,0,.49,0l.95-1.86a.6.6,0,0,0,0-.49l-.95-1.85A.28.28,0,0,0,209.78,133.88Zm-25.56,13.2.94-1.86a.53.53,0,0,0,0-.49l-.94-1.85a.28.28,0,0,0-.49,0l-.94,1.85a.53.53,0,0,0,0,.49l.94,1.86A.28.28,0,0,0,184.22,147.08Zm-13.52-27a.28.28,0,0,0,.5,0l.94-1.86a.51.51,0,0,0,0-.48l-.94-1.86a.28.28,0,0,0-.34-.13l-.2.21-.9,1.78a.51.51,0,0,0,0,.48Zm10.12,51.65-.94-1.85a.28.28,0,0,0-.49,0l-.94,1.85a.53.53,0,0,0,0,.49l.94,1.85a.27.27,0,0,0,.49,0l.94-1.85A.53.53,0,0,0,180.82,171.73Zm-3.6-2.16a.27.27,0,0,0,.49,0l.94-1.85a.53.53,0,0,0,0-.49l-.94-1.85a.28.28,0,0,0-.49,0l-.95,1.85a.6.6,0,0,0,0,.49Zm4.34,0a.27.27,0,0,0,.49,0l.94-1.85a.53.53,0,0,0,0-.49l-.94-1.85a.28.28,0,0,0-.49,0l-.94,1.85a.53.53,0,0,0,0,.49Zm-8.19-54,.94-1.86a.51.51,0,0,0,0-.48l-.25-.49c-.62.51-1.22,1.06-1.8,1.61l.61,1.22A.28.28,0,0,0,173.37,115.58Zm7.25-1.86.94,1.86a.28.28,0,0,0,.49,0l.94-1.86a.51.51,0,0,0,0-.48l-.94-1.86a.28.28,0,0,0-.49,0l-.94,1.86A.51.51,0,0,0,180.62,113.72Zm-.74,2.16a.28.28,0,0,0-.49,0l-.94,1.86a.51.51,0,0,0,0,.48l.94,1.86a.28.28,0,0,0,.49,0l.94-1.86a.51.51,0,0,0,0-.48Zm-2.66-.3a.28.28,0,0,0,.49,0l.94-1.86a.51.51,0,0,0,0-.48l-.94-1.86a.28.28,0,0,0-.49,0l-.95,1.86a.57.57,0,0,0,0,.48Zm7,58.49.94-1.85a.53.53,0,0,0,0-.49l-.94-1.85a.28.28,0,0,0-.49,0l-.94,1.85a.53.53,0,0,0,0,.49l.94,1.85A.27.27,0,0,0,184.22,174.07Zm12.54,0a.27.27,0,0,0,.49,0l.94-1.85a.53.53,0,0,0,0-.49l-.94-1.85a.28.28,0,0,0-.49,0l-.95,1.85a.6.6,0,0,0,0,.49Zm-.74,2.16-.94-1.85a.28.28,0,0,0-.5,0l-.94,1.85a.53.53,0,0,0,0,.49l.94,1.85a.28.28,0,0,0,.5,0l.94-1.85A.53.53,0,0,0,196,176.23Zm5.08-2.16a.27.27,0,0,0,.49,0l.94-1.85a.53.53,0,0,0,0-.49l-.94-1.85a.28.28,0,0,0-.49,0l-.94,1.85a.53.53,0,0,0,0,.49Zm-1.68-4.5.94-1.85a.53.53,0,0,0,0-.49l-.94-1.85a.28.28,0,0,0-.49,0l-1,1.85a.6.6,0,0,0,0,.49l1,1.85A.27.27,0,0,0,199.42,169.57Zm-11.35,4.5a.27.27,0,0,0,.49,0l.95-1.85a.6.6,0,0,0,0-.49l-.95-1.85a.28.28,0,0,0-.49,0l-.94,1.85a.53.53,0,0,0,0,.49Zm3.61,2.16-1-1.85a.28.28,0,0,0-.49,0l-.94,1.85a.53.53,0,0,0,0,.49l.94,1.85a.27.27,0,0,0,.49,0l1-1.85A.6.6,0,0,0,191.68,176.23Zm.73-2.16a.28.28,0,0,0,.5,0l.94-1.85a.53.53,0,0,0,0-.49l-.94-1.85a.28.28,0,0,0-.5,0l-.94,1.85a.53.53,0,0,0,0,.49Zm-6,.31a.28.28,0,0,0-.49,0l-.94,1.85a.53.53,0,0,0,0,.49l.94,1.85a.27.27,0,0,0,.49,0l.94-1.85a.53.53,0,0,0,0-.49Zm18.11-65.15.94,1.85a.28.28,0,0,0,.49,0l.94-1.85a.53.53,0,0,0,0-.49l-.94-1.86a.28.28,0,0,0-.49,0l-.94,1.86A.53.53,0,0,0,204.5,109.23Zm4.34,0,.94,1.85a.28.28,0,0,0,.49,0l.95-1.85a.6.6,0,0,0,0-.49l-.95-1.86a.28.28,0,0,0-.49,0l-.94,1.86A.53.53,0,0,0,208.84,109.23Zm-.74,2.15a.28.28,0,0,0-.49,0l-.94,1.86a.51.51,0,0,0,0,.48l.94,1.86a.28.28,0,0,0,.49,0l.94-1.86a.51.51,0,0,0,0-.48Zm-4.34,0a.28.28,0,0,0-.49,0l-.94,1.86a.51.51,0,0,0,0,.48l.94,1.86a.28.28,0,0,0,.49,0l.94-1.86a.51.51,0,0,0,0-.48Zm10.36-.3a.28.28,0,0,0,.5,0l.94-1.85a.53.53,0,0,0,0-.49l-.94-1.86a.28.28,0,0,0-.5,0l-.94,1.86a.53.53,0,0,0,0,.49Zm1.23,2.64.94,1.86a.28.28,0,0,0,.5,0l.94-1.86a.51.51,0,0,0,0-.48l-.94-1.86a.28.28,0,0,0-.5,0l-.94,1.86A.51.51,0,0,0,215.35,113.72Zm-15.19-4.49.94,1.85a.28.28,0,0,0,.49,0l.94-1.85a.53.53,0,0,0,0-.49l-.94-1.86a.28.28,0,0,0-.49,0l-.94,1.86A.53.53,0,0,0,200.16,109.23Zm12.28,2.15a.28.28,0,0,0-.49,0l-.94,1.86a.51.51,0,0,0,0,.48l.94,1.86a.28.28,0,0,0,.49,0l.95-1.86a.57.57,0,0,0,0-.48Zm-21-2.15.94,1.85a.28.28,0,0,0,.5,0l.94-1.85a.53.53,0,0,0,0-.49l-.94-1.86a.28.28,0,0,0-.5,0l-.94,1.86A.53.53,0,0,0,191.47,109.23Zm-.74,2.15a.28.28,0,0,0-.49,0l-.94,1.86a.51.51,0,0,0,0,.48l.94,1.86a.28.28,0,0,0,.49,0l1-1.86a.57.57,0,0,0,0-.48Zm-2.66-.3a.28.28,0,0,0,.49,0l.95-1.85a.6.6,0,0,0,0-.49l-.95-1.86a.28.28,0,0,0-.49,0l-.94,1.86a.53.53,0,0,0,0,.49Zm-1.68.3a.28.28,0,0,0-.49,0l-.94,1.86a.51.51,0,0,0,0,.48l.94,1.86a.28.28,0,0,0,.49,0l.94-1.86a.51.51,0,0,0,0-.48Zm8.69,0a.28.28,0,0,0-.5,0l-.94,1.86a.51.51,0,0,0,0,.48l.94,1.86a.28.28,0,0,0,.5,0l.94-1.86a.51.51,0,0,0,0-.48Zm.73-2.15.95,1.85a.28.28,0,0,0,.49,0l.94-1.85a.53.53,0,0,0,0-.49l-.94-1.86a.28.28,0,0,0-.49,0l-.95,1.86A.6.6,0,0,0,195.81,109.23Zm-12.08,1.85a.28.28,0,0,0,.49,0l.94-1.85a.53.53,0,0,0,0-.49l-.94-1.86a.28.28,0,0,0-.49,0l-.94,1.86a.53.53,0,0,0,0,.49Zm35.23,4.8a.28.28,0,0,0-.49,0l-.95,1.86a.57.57,0,0,0,0,.48l.95,1.86a.28.28,0,0,0,.49,0l.94-1.86a.51.51,0,0,0,0-.48Zm-19.54-4.5a.28.28,0,0,0-.49,0l-1,1.86a.57.57,0,0,0,0,.48l1,1.86a.28.28,0,0,0,.49,0l.94-1.86a.51.51,0,0,0,0-.48Zm5.28,64.85-.94-1.85a.28.28,0,0,0-.49,0l-.94,1.85a.53.53,0,0,0,0,.49l.94,1.85a.27.27,0,0,0,.49,0l.94-1.85A.53.53,0,0,0,204.7,176.23Zm-22.65-1.85a.28.28,0,0,0-.49,0l-.94,1.85a.53.53,0,0,0,0,.49l.31.61c.46.24.92.48,1.39.71l.67-1.32a.53.53,0,0,0,0-.49Zm1.85,4.37.32.13h0A.25.25,0,0,0,183.9,178.75Zm9,.13a.28.28,0,0,0-.5,0l-.94,1.85a.53.53,0,0,0,0,.35c.75.15,1.52.27,2.29.38l.12-.24a.53.53,0,0,0,0-.49Zm4.34,0a.28.28,0,0,0-.49,0l-.95,1.85a.6.6,0,0,0,0,.49l.25.49c.61,0,1.22.08,1.83.1l.3-.59a.53.53,0,0,0,0-.49Zm-20-4.5-.27.53c.5.35,1,.69,1.55,1l-.79-1.55A.28.28,0,0,0,177.22,174.38Zm9.17-67.8.51-1c-.43.14-.86.28-1.28.44l.28.55A.28.28,0,0,0,186.39,106.58Zm-6.51,4.5.94-1.85a.53.53,0,0,0,0-.49l-.22-.44c-.69.37-1.36.77-2,1.18l.82,1.6A.28.28,0,0,0,179.88,111.08Zm29.9,67.8-.89,1.75c.67-.17,1.33-.36,2-.57l-.61-1.18A.28.28,0,0,0,209.78,178.88Zm4.34,0,.33-.13a.27.27,0,0,0-.33.13Zm2.67-4.5a.28.28,0,0,0-.5,0l-.94,1.85a.53.53,0,0,0,0,.49L216,178l1.4-.71.31-.61a.53.53,0,0,0,0-.49Zm-16.43,1.85-.94-1.85a.28.28,0,0,0-.49,0l-1,1.85a.6.6,0,0,0,0,.49l1,1.85a.27.27,0,0,0,.49,0l.94-1.85A.53.53,0,0,0,200.36,176.23Zm20.28-1.85-.79,1.55c.52-.33,1-.67,1.55-1l-.27-.53A.28.28,0,0,0,220.64,174.38Zm-19,4.5a.28.28,0,0,0-.49,0l-.94,1.85a.53.53,0,0,0,0,.49l.3.59c.61,0,1.22-.05,1.82-.1l.25-.49a.53.53,0,0,0,0-.49Zm-10.86-72.3,1-1.85a.55.55,0,0,0,0-.4c-.79.16-1.57.32-2.33.52l.87,1.73A.28.28,0,0,0,190.73,106.58Zm15.2,72.3a.28.28,0,0,0-.49,0l-.94,1.85a.53.53,0,0,0,0,.49l.12.24c.77-.11,1.53-.23,2.29-.38a.53.53,0,0,0,0-.35Zm-17.86,0-.6,1.18q1,.31,2,.57l-.89-1.75A.28.28,0,0,0,188.07,178.88Zm24.37-4.5a.28.28,0,0,0-.49,0l-.94,1.85a.53.53,0,0,0,0,.49l.94,1.85a.27.27,0,0,0,.49,0l.95-1.85a.6.6,0,0,0,0-.49Zm8.2-4.81a.27.27,0,0,0,.49,0l.94-1.85a.53.53,0,0,0,0-.49l-.94-1.85a.28.28,0,0,0-.49,0l-.95,1.85a.6.6,0,0,0,0,.49Zm-5.08,2.16-.94-1.85a.28.28,0,0,0-.5,0l-.94,1.85a.53.53,0,0,0,0,.49l.94,1.85a.28.28,0,0,0,.5,0l.94-1.85A.53.53,0,0,0,215.56,171.73Zm4.34,0-.94-1.85a.28.28,0,0,0-.49,0l-.95,1.85a.6.6,0,0,0,0,.49l.95,1.85a.27.27,0,0,0,.49,0l.94-1.85A.53.53,0,0,0,219.9,171.73Zm-3.61-2.16a.28.28,0,0,0,.5,0l.94-1.85a.53.53,0,0,0,0-.49l-.94-1.85a.28.28,0,0,0-.5,0l-.94,1.85a.53.53,0,0,0,0,.49Zm-10.85,4.5a.27.27,0,0,0,.49,0l.94-1.85a.53.53,0,0,0,0-.49l-.94-1.85a.28.28,0,0,0-.49,0l-.94,1.85a.53.53,0,0,0,0,.49Zm4.34,0a.27.27,0,0,0,.49,0l.95-1.85a.6.6,0,0,0,0-.49l-.95-1.85a.28.28,0,0,0-.49,0l-.94,1.85a.53.53,0,0,0,0,.49Zm-15.2-67.49a.28.28,0,0,0,.5,0l.94-1.85a.53.53,0,0,0,0-.49l-.24-.47c-.68.06-1.35.13-2,.22l-.13.25a.53.53,0,0,0,0,.49ZM209,176.23l-.94-1.85a.28.28,0,0,0-.49,0l-.94,1.85a.53.53,0,0,0,0,.49l.94,1.85a.27.27,0,0,0,.49,0l.94-1.85A.53.53,0,0,0,209,176.23Zm-5.77-69.65a.28.28,0,0,0,.49,0l.94-1.85a.53.53,0,0,0,0-.49l-.12-.25c-.67-.09-1.34-.16-2-.22l-.23.47a.53.53,0,0,0,0,.49Zm-4.34,0a.28.28,0,0,0,.49,0l.94-1.85a.53.53,0,0,0,0-.49l-.31-.61-.88,0-.88,0-.31.61a.6.6,0,0,0,0,.49Zm8.68,0a.28.28,0,0,0,.49,0l.88-1.73c-.77-.2-1.55-.36-2.33-.52a.55.55,0,0,0,0,.4ZM232,156.08l.94-1.86a.53.53,0,0,0,0-.49l-.94-1.85a.28.28,0,0,0-.49,0l-.94,1.85a.53.53,0,0,0,0,.49l.94,1.86A.28.28,0,0,0,232,156.08Zm-2.66,9.3-.94,1.85a.53.53,0,0,0,0,.49l.32.64c.56-.64,1.11-1.3,1.62-2l-.51-1A.28.28,0,0,0,229.32,165.38ZM227,170.26c.16-.17.32-.35.49-.52a.27.27,0,0,0-.3.14Zm-8.49-59.18a.28.28,0,0,0,.49,0l.81-1.6c-.66-.41-1.33-.81-2-1.18l-.23.44a.6.6,0,0,0,0,.49Zm-6-4.5.29-.55c-.43-.16-.85-.3-1.28-.44l.5,1A.28.28,0,0,0,212.44,106.58Zm-20,9.3-.94,1.86a.51.51,0,0,0,0,.48l.94,1.86a.28.28,0,0,0,.5,0l.94-1.86a.51.51,0,0,0,0-.48l-.94-1.86A.28.28,0,0,0,192.41,115.88Zm8.69,0-.94,1.86a.51.51,0,0,0,0,.48l.94,1.86a.28.28,0,0,0,.49,0l.94-1.86a.51.51,0,0,0,0-.48l-.94-1.86A.28.28,0,0,0,201.1,115.88Zm-13,0-.94,1.86a.51.51,0,0,0,0,.48l.94,1.86a.28.28,0,0,0,.49,0l.95-1.86a.57.57,0,0,0,0-.48l-.95-1.86A.28.28,0,0,0,188.07,115.88Zm-1.68,4.5a.28.28,0,0,0-.49,0l-.94,1.86a.51.51,0,0,0,0,.48l.94,1.86a.28.28,0,0,0,.49,0l.94-1.86a.51.51,0,0,0,0-.48Zm-2.66-4.5-.94,1.86a.51.51,0,0,0,0,.48l.94,1.86a.28.28,0,0,0,.49,0l.94-1.86a.51.51,0,0,0,0-.48l-.94-1.86A.28.28,0,0,0,183.73,115.88Zm15.69,4.5a.28.28,0,0,0-.49,0l-1,1.86a.57.57,0,0,0,0,.48l1,1.86a.28.28,0,0,0,.49,0l.94-1.86a.51.51,0,0,0,0-.48Zm-2.66-4.5-.95,1.86a.57.57,0,0,0,0,.48l.95,1.86a.28.28,0,0,0,.49,0l.94-1.86a.51.51,0,0,0,0-.48l-.94-1.86A.28.28,0,0,0,196.76,115.88Zm-1.68,4.5a.28.28,0,0,0-.5,0l-.94,1.86a.51.51,0,0,0,0,.48l.94,1.86a.28.28,0,0,0,.5,0l.94-1.86a.51.51,0,0,0,0-.48Zm-4.35,0a.28.28,0,0,0-.49,0l-.94,1.86a.51.51,0,0,0,0,.48l.94,1.86a.28.28,0,0,0,.49,0l1-1.86a.57.57,0,0,0,0-.48Zm-26,4.2.94-1.86a.34.34,0,0,0,0-.19c-.43.71-.83,1.45-1.22,2.2A.28.28,0,0,0,164.68,124.58Zm16.88-4.2-.94,1.86a.51.51,0,0,0,0,.48l.94,1.86a.28.28,0,0,0,.49,0l.94-1.86a.51.51,0,0,0,0-.48l-.94-1.86A.28.28,0,0,0,181.56,120.38Zm-13,4.2a.28.28,0,0,0,.49,0l.95-1.86a.57.57,0,0,0,0-.48l-.95-1.86a.28.28,0,0,0-.49,0l-.94,1.86a.51.51,0,0,0,0,.48Zm4.84-4.2a.28.28,0,0,0-.5,0l-.94,1.86a.51.51,0,0,0,0,.48l.94,1.86a.28.28,0,0,0,.5,0l.94-1.86a.51.51,0,0,0,0-.48Zm.73-2.16,1,1.86a.28.28,0,0,0,.49,0l.94-1.86a.51.51,0,0,0,0-.48l-.94-1.86a.28.28,0,0,0-.49,0l-1,1.86A.57.57,0,0,0,174.1,118.22Zm5.78,6.66a.28.28,0,0,0-.49,0l-.94,1.86a.51.51,0,0,0,0,.48l.94,1.86a.28.28,0,0,0,.49,0l.94-1.86a.51.51,0,0,0,0-.48Zm-2.66-4.5-.95,1.86a.57.57,0,0,0,0,.48l.95,1.86a.28.28,0,0,0,.49,0l.94-1.86a.51.51,0,0,0,0-.48l-.94-1.86A.28.28,0,0,0,177.22,120.38Zm-6.52,4.5-.94,1.86a.51.51,0,0,0,0,.48l.94,1.86a.28.28,0,0,0,.5,0l.94-1.86a.51.51,0,0,0,0-.48l-.94-1.86A.28.28,0,0,0,170.7,124.88Zm56.94,0a.28.28,0,0,0-.49,0l-.94,1.86a.51.51,0,0,0,0,.48l.94,1.86a.28.28,0,0,0,.49,0l.94-1.86a.51.51,0,0,0,0-.48Zm.74-2.16.94,1.86a.28.28,0,0,0,.49,0l.94-1.86a.51.51,0,0,0,0-.48l-.94-1.86a.28.28,0,0,0-.49,0l-.94,1.86A.51.51,0,0,0,228.38,122.72Zm-2.91-2.34a.28.28,0,0,0-.49,0l-.94,1.86a.51.51,0,0,0,0,.48l.94,1.86a.28.28,0,0,0,.49,0l.94-1.86a.51.51,0,0,0,0-.48Zm-3.6-2.16.94,1.86a.28.28,0,0,0,.49,0l.94-1.86a.51.51,0,0,0,0-.48l-.94-1.86a.28.28,0,0,0-.49,0l-.94,1.86A.51.51,0,0,0,221.87,118.22Zm14,10.86h0c-.29-.78-.62-1.55-1-2.31a.54.54,0,0,0,0,.45Zm-32.07-8.7a.28.28,0,0,0-.49,0l-.94,1.86a.51.51,0,0,0,0,.48l.94,1.86a.28.28,0,0,0,.49,0l.94-1.86a.51.51,0,0,0,0-.48Zm29.9,9-.94,1.86a.51.51,0,0,0,0,.48l.94,1.86a.28.28,0,0,0,.49,0l.95-1.86a.57.57,0,0,0,0-.48l-.95-1.86A.28.28,0,0,0,233.66,129.38Zm-3.11-2.16.94,1.86a.28.28,0,0,0,.49,0l.94-1.86a.51.51,0,0,0,0-.48l-.94-1.86a.28.28,0,0,0-.49,0l-.94,1.86A.51.51,0,0,0,230.55,127.22Zm-9.42-6.84a.28.28,0,0,0-.49,0l-.95,1.86a.57.57,0,0,0,0,.48l.95,1.86a.28.28,0,0,0,.49,0l.94-1.86a.51.51,0,0,0,0-.48Zm-11.35-4.5-.94,1.86a.51.51,0,0,0,0,.48l.94,1.86a.28.28,0,0,0,.49,0l.95-1.86a.57.57,0,0,0,0-.48l-.95-1.86A.28.28,0,0,0,209.78,115.88Zm-1.68,4.5a.28.28,0,0,0-.49,0l-.94,1.86a.51.51,0,0,0,0,.48l.94,1.86a.28.28,0,0,0,.49,0l.94-1.86a.51.51,0,0,0,0-.48Zm-2.66-4.5-.94,1.86a.51.51,0,0,0,0,.48l.94,1.86a.28.28,0,0,0,.49,0l.94-1.86a.51.51,0,0,0,0-.48l-.94-1.86A.28.28,0,0,0,205.44,115.88Zm7,4.5a.28.28,0,0,0-.49,0l-.94,1.86a.51.51,0,0,0,0,.48l.94,1.86a.28.28,0,0,0,.49,0l.95-1.86a.57.57,0,0,0,0-.48Zm6.52,4.5a.28.28,0,0,0-.49,0l-.95,1.86a.57.57,0,0,0,0,.48l.95,1.86a.28.28,0,0,0,.49,0l.94-1.86a.51.51,0,0,0,0-.48Zm-2.67-4.5-.94,1.86a.51.51,0,0,0,0,.48l.94,1.86a.28.28,0,0,0,.5,0l.94-1.86a.51.51,0,0,0,0-.48l-.94-1.86A.28.28,0,0,0,216.29,120.38Zm-1.67-4.5a.28.28,0,0,0-.5,0l-.94,1.86a.51.51,0,0,0,0,.48l.94,1.86a.28.28,0,0,0,.5,0l.94-1.86a.51.51,0,0,0,0-.48Zm-37.4,44.7a.28.28,0,0,0,.49,0l.94-1.86a.53.53,0,0,0,0-.49l-.94-1.85a.28.28,0,0,0-.49,0l-.95,1.85a.6.6,0,0,0,0,.49Zm32.56,4.49a.27.27,0,0,0,.49,0l.95-1.85a.6.6,0,0,0,0-.49l-.95-1.85a.28.28,0,0,0-.49,0l-.94,1.85a.53.53,0,0,0,0,.49Zm9.18,0,.94-1.85a.53.53,0,0,0,0-.49l-.94-1.85a.28.28,0,0,0-.49,0l-.95,1.85a.6.6,0,0,0,0,.49l.95,1.85A.27.27,0,0,0,219,165.07Zm-4.34,0,.94-1.85a.53.53,0,0,0,0-.49l-.94-1.85a.28.28,0,0,0-.5,0l-.94,1.85a.53.53,0,0,0,0,.49l.94,1.85A.28.28,0,0,0,214.62,165.07Zm1.67-4.49a.28.28,0,0,0,.5,0l.94-1.86a.53.53,0,0,0,0-.49l-.94-1.85a.28.28,0,0,0-.5,0l-.94,1.85a.53.53,0,0,0,0,.49Zm-3.85,9,.95-1.85a.6.6,0,0,0,0-.49l-.95-1.85a.28.28,0,0,0-.49,0l-.94,1.85a.53.53,0,0,0,0,.49l.94,1.85A.27.27,0,0,0,212.44,169.57Zm-4.34,0,.94-1.85a.53.53,0,0,0,0-.49l-.94-1.85a.28.28,0,0,0-.49,0l-.94,1.85a.53.53,0,0,0,0,.49l.94,1.85A.27.27,0,0,0,208.1,169.57Zm-4.34,0,.94-1.85a.53.53,0,0,0,0-.49l-.94-1.85a.28.28,0,0,0-.49,0l-.94,1.85a.53.53,0,0,0,0,.49l.94,1.85A.27.27,0,0,0,203.76,169.57Zm1.68-4.5a.27.27,0,0,0,.49,0l.94-1.85a.53.53,0,0,0,0-.49l-.94-1.85a.28.28,0,0,0-.49,0l-.94,1.85a.53.53,0,0,0,0,.49Zm28.22-40.49a.28.28,0,0,0,.24.15c-.39-.75-.79-1.49-1.23-2.2a.67.67,0,0,0,.05.19Zm-4.34,36a.28.28,0,0,0,.49,0l.94-1.86a.53.53,0,0,0,0-.49l-.94-1.85a.28.28,0,0,0-.49,0l-.94,1.85a.53.53,0,0,0,0,.49Zm-28.22,4.49a.27.27,0,0,0,.49,0l.94-1.85a.53.53,0,0,0,0-.49l-.94-1.85a.28.28,0,0,0-.49,0l-.94,1.85a.53.53,0,0,0,0,.49ZM225,115.58a.28.28,0,0,0,.49,0l.62-1.22c-.59-.55-1.19-1.1-1.8-1.61l-.25.49a.51.51,0,0,0,0,.48Zm-1.68,49.49.94-1.85a.53.53,0,0,0,0-.49l-.94-1.85a.28.28,0,0,0-.49,0l-.94,1.85a.53.53,0,0,0,0,.49l.94,1.85A.27.27,0,0,0,223.3,165.07Zm-2.66-4.49a.28.28,0,0,0,.49,0l.94-1.86a.53.53,0,0,0,0-.49l-.94-1.85a.28.28,0,0,0-.49,0l-.95,1.85a.6.6,0,0,0,0,.49Zm7.94,2.15-.94-1.85a.28.28,0,0,0-.49,0l-.94,1.85a.53.53,0,0,0,0,.49l.94,1.85a.27.27,0,0,0,.49,0l.94-1.85A.53.53,0,0,0,228.58,162.73Zm-3.11,2.65a.28.28,0,0,0-.49,0l-.94,1.85a.53.53,0,0,0,0,.49l.94,1.85a.27.27,0,0,0,.49,0l.94-1.85a.53.53,0,0,0,0-.49Zm-39.57,4.19a.27.27,0,0,0,.49,0l.94-1.85a.53.53,0,0,0,0-.49l-.94-1.85a.28.28,0,0,0-.49,0l-.94,1.85a.53.53,0,0,0,0,.49Zm33.79-55.85.95,1.86a.28.28,0,0,0,.49,0l.94-1.86a.51.51,0,0,0,0-.48l-.94-1.86a.28.28,0,0,0-.49,0l-.95,1.86A.57.57,0,0,0,219.69,113.72Zm-44.64,51.35a.27.27,0,0,0,.49,0l.94-1.85a.53.53,0,0,0,0-.49l-.94-1.85a.28.28,0,0,0-.49,0l-1,1.85a.6.6,0,0,0,0,.49Zm4.83,0,.94-1.85a.53.53,0,0,0,0-.49l-.94-1.85a.28.28,0,0,0-.49,0l-.94,1.85a.53.53,0,0,0,0,.49l.94,1.85A.27.27,0,0,0,179.88,165.07Zm-5.57,2.16-.94-1.85a.28.28,0,0,0-.5,0l-.94,1.85a.53.53,0,0,0,0,.49l.94,1.85a.28.28,0,0,0,.5,0l.94-1.85A.53.53,0,0,0,174.31,167.23Zm7.25-6.65a.28.28,0,0,0,.49,0l.94-1.86a.53.53,0,0,0,0-.49l-.94-1.85a.28.28,0,0,0-.49,0l-.94,1.85a.53.53,0,0,0,0,.49Zm-10.36,4.49.94-1.85a.53.53,0,0,0,0-.49l-.94-1.85a.28.28,0,0,0-.5,0l-.94,1.85a.53.53,0,0,0,0,.49l.94,1.85A.28.28,0,0,0,171.2,165.07Zm-.3,4.67c.16.17.32.35.49.52l-.19-.38A.28.28,0,0,0,170.9,169.74Zm28.52-9.16.94-1.86a.53.53,0,0,0,0-.49l-.94-1.85a.28.28,0,0,0-.49,0l-1,1.85a.6.6,0,0,0,0,.49l1,1.86A.28.28,0,0,0,199.42,160.58Zm-4.34,9,.94-1.85a.53.53,0,0,0,0-.49l-.94-1.85a.28.28,0,0,0-.5,0l-.94,1.85a.53.53,0,0,0,0,.49l.94,1.85A.28.28,0,0,0,195.08,169.57Zm-2.67-4.5a.28.28,0,0,0,.5,0l.94-1.85a.53.53,0,0,0,0-.49l-.94-1.85a.28.28,0,0,0-.5,0l-.94,1.85a.53.53,0,0,0,0,.49Zm4.35,0a.27.27,0,0,0,.49,0l.94-1.85a.53.53,0,0,0,0-.49l-.94-1.85a.28.28,0,0,0-.49,0l-.95,1.85a.6.6,0,0,0,0,.49Zm-8.69,0a.27.27,0,0,0,.49,0l.95-1.85a.6.6,0,0,0,0-.49l-.95-1.85a.28.28,0,0,0-.49,0l-.94,1.85a.53.53,0,0,0,0,.49Zm-19,.31a.28.28,0,0,0-.49,0l-.51,1q.78,1,1.62,2l.33-.64a.6.6,0,0,0,0-.49Zm15.2-.31.94-1.85a.53.53,0,0,0,0-.49l-.94-1.85a.28.28,0,0,0-.49,0l-.94,1.85a.53.53,0,0,0,0,.49l.94,1.85A.27.27,0,0,0,184.22,165.07Zm6.51,4.5,1-1.85a.6.6,0,0,0,0-.49l-1-1.85a.28.28,0,0,0-.49,0l-.94,1.85a.53.53,0,0,0,0,.49l.94,1.85A.27.27,0,0,0,190.73,169.57Z"/></g></g></svg>